<?xml version="1.0" standalone="no"?>
<!DOCTYPE svg PUBLIC "-//W3C//DTD SVG 1.1//EN" "http://www.w3.org/Graphics/SVG/1.1/DTD/svg11.dtd" >
<svg xmlns="http://www.w3.org/2000/svg" xmlns:xlink="http://www.w3.org/1999/xlink" version="1.1">
<metadata>
Created by FontForge 20201107 at Thu Oct  1 02:43:50 2020
 By Unknown
</metadata>
<defs>
<font id="poco-icon-1.0.0" horiz-adv-x="1001" >
  <font-face 
    font-family="poco-icon-1.0.0"
    font-weight="400"
    font-stretch="normal"
    units-per-em="1001"
    panose-1="2 0 5 3 0 0 0 0 0 0"
    ascent="1001"
    descent="0"
    bbox="-0.444444 -3 2126.2 1002"
    underline-thickness="0"
    underline-position="10"
    unicode-range="U+E001-E0AA"
  />
<missing-glyph horiz-adv-x="0" 
 />
    <glyph glyph-name=".notdef" horiz-adv-x="0" 
 />
    <glyph glyph-name="angle-down" unicode="&#xe001;" horiz-adv-x="625" 
d="M280 312l-266 266q-14 14 -14 33.5t14 32.5l44 45q14 13 33.5 13t32.5 -13l189 -189l188 189q14 13 33.5 13t32.5 -13l45 -45q13 -13 13 -32.5t-13 -33.5l-266 -266q-14 -14 -33.5 -14t-32.5 14z" />
    <glyph glyph-name="angle-left" unicode="&#xe002;" horiz-adv-x="500" 
d="M62 534l266 266q14 13 33 13t33 -13l44 -45q14 -13 14 -32.5t-14 -33.5l-188 -188l189 -189q13 -14 13 -33.5t-13 -32.5l-45 -45q-13 -13 -32.5 -13t-33.5 13l-266 266q-14 14 -14 33.5t14 33.5z" />
    <glyph glyph-name="angle-right" unicode="&#xe003;" horiz-adv-x="500" 
d="M439 467l-266 -266q-14 -13 -33.5 -13t-33.5 13l-44 45q-14 13 -14 32.5t14 33.5l189 188l-189 189q-14 14 -14 33t14 33l44 45q14 13 33.5 13t32.5 -13l266 -266q14 -14 14 -33.5t-13 -33.5z" />
    <glyph glyph-name="angle-up" unicode="&#xe004;" horiz-adv-x="625" 
d="M346 689l266 -266q14 -14 14 -33.5t-14 -32.5l-44 -45q-14 -13 -33.5 -13t-33.5 13l-188 189l-189 -189q-13 -14 -32.5 -14t-33.5 14l-44 44q-14 14 -14 33.5t14 33.5l266 266q13 14 32.5 14t33.5 -14z" />
    <glyph glyph-name="burger" unicode="&#xe005;" 
d="M982 233q0 28 -15 51.5t-40 35.5q6 14 6 28v1q-1 21 -13.5 38t-32.5 24v4q0 78 -39 144q-37 65 -102 102q-66 39 -144 39h-82v107l210 92q6 2 9 7.5t2.5 11.5t-4 11t-9.5 6l-222 65q-9 3 -17 -3t-8 -16v-281h-82q-78 0 -144 -39q-65 -37 -102 -102q-39 -66 -39 -144v-4
q-20 -7 -32.5 -24t-13.5 -38v-1q0 -14 6 -28q-25 -12 -40 -36t-15 -51q0 -40 27.5 -68t67.5 -29v-27q0 -29 14.5 -54.5t39.5 -40t55 -14.5h555q30 0 55 14.5t39.5 40t14.5 54.5v27q39 1 67 29.5t28 67.5zM520 955l145 -42l-145 -63v105zM893 348q0 -24 -21 -41
q-18 -15 -47 -22q-25 -7 -48.5 -7t-48.5 6q-30 8 -49 22q-22 18 -21 42q0 11 8 19t19 8h181q11 0 19 -8t8 -19zM592 305q-38 -29 -97 -27q-38 1 -71 16q-42 20 -41 54q0 11 8 19t19 8h181q11 0 19 -8t8 -19q1 -24 -26 -43zM153 415q0 67 33 123.5t89.5 89.5t123.5 33h203
q67 0 123.5 -33t89.5 -89.5t33 -123.5v-1h-695v1zM108 348q0 11 8 19t19 8h181q11 0 19 -8t8 -19q0 -35 -43 -54q-33 -16 -73 -16q-24 0 -49 6q-31 8 -49 22q-22 18 -21 42zM926 192q-17 -17 -40 -17h-299q-8 0 -13.5 -5.5t-5.5 -13.5v0q0 -8 5.5 -14t13.5 -6h261v-27
q0 -29 -20.5 -49.5t-49.5 -20.5h-555q-29 0 -49.5 20.5t-20.5 49.5v27h262q8 0 14 6t6 14v0q0 8 -6 13.5t-14 5.5h-300q-23 0 -40 17t-17 41q0 17 10.5 32t26.5 21q32 -32 82.5 -43t99.5 1q52 12 82 46h8q30 -34 83 -46q51 -12 101 0q53 12 83 46h8q30 -34 82 -46
q49 -12 99.5 -1t82.5 43q16 -6 26.5 -20.5t10.5 -32.5q0 -24 -17 -41zM393 597q-6 6 -14 6t-14 -5.5t-6 -14t6 -13.5l15 -15q5 -6 13.5 -6t14 6t5.5 14t-6 14zM605 597l-14 -14q-6 -6 -6 -14t5.5 -14t14 -6t13.5 6l15 15q6 5 6 13.5t-6 14t-14 5.5t-14 -6zM500 606
q-8 0 -14 -5.5t-6 -13.5v-21q0 -8 6 -14t14 -6t14 6t6 14v21q0 8 -6 13.5t-14 5.5zM519 163q-4 8 -11.5 11t-14.5 0t-10.5 -10.5t0 -15t11 -10.5t14.5 0t10.5 10.5t0.5 14.5z" />
    <glyph glyph-name="cheeseburger" unicode="&#xe006;" 
d="M594 719q13 0 22.5 9.5t9.5 22.5t-9.5 22t-22.5 9t-22 -9t-9 -22t9 -22.5t22 -9.5zM1001 375q0 33 -16 61t-43 45q21 32 25 74q4 44 -13 81q-39 85 -107 153q-70 70 -156 108q-92 41 -190.5 41t-190.5 -41q-86 -38 -156 -108q-68 -68 -107 -153q-18 -38 -15 -84
q2 -42 22 -74q-21 -14 -34 -35t-17.5 -45t0.5 -48t19 -45q8 -12 20 -22q-11 -17 -11 -33v-62q0 -34 17 -63t45.5 -45.5t62.5 -16.5h689q34 0 62.5 16.5t45.5 45.5t17 63v62q0 16 -11 33q20 17 31 41.5t11 50.5zM103 609q37 79 99.5 139.5t140 94t158 33.5t158.5 -33.5
t140 -94t99 -139.5q8 -18 7.5 -41t-10.5 -44l-1 -1q-5 -11 -15 -17t-22 -6h-720q-20 0 -31 15q-3 3 -5 8q-8 21 -7.5 44.5t9.5 41.5zM907 188q0 -26 -18 -44.5t-44 -18.5h-689q-26 0 -44 18.5t-18 44.5v62h813v-62zM876 313h-751q-26 0 -44 18t-18 44t18 44.5t44 18.5h313
l188 -94l187 94h63q26 0 44 -18.5t18 -44.5t-18 -44t-44 -18zM751 594q13 0 22 9.5t9 22.5t-9 22t-22 9t-22.5 -9t-9.5 -22t9.5 -22.5t22.5 -9.5zM250 594q13 0 22.5 9.5t9.5 22.5t-9.5 22t-22.5 9t-22 -9t-9 -22t9 -22.5t22 -9.5zM407 719q13 0 22 9.5t9 22.5t-9 22t-22 9
t-22.5 -9t-9.5 -22t9.5 -22.5t22.5 -9.5z" />
    <glyph glyph-name="chicken" unicode="&#xe007;" 
d="M964 470q21 12 27 35t-6 43.5t-35 27.5q-14 3 -29 -1q-11 11 -26 15q-23 6 -43.5 -5.5t-26.5 -34.5q-5 -18 1.5 -35t21.5 -27l-16 -57q-50 -7 -101 -63l-12 1l53 259q2 10 2 21v0q0 79 -33.5 150t-93.5 121t-136 70q-15 11 -33 11h-118q-71 0 -135 -26.5t-114 -76.5
t-76.5 -114t-26.5 -135v0q-1 -11 2 -21l98 -479q7 -30 31.5 -50.5t56.5 -20.5h264q18 -27 42.5 -45.5t52.5 -26.5q21 -6 43 -6q47 0 94 27l15 9q27 -20 61 -29q25 -7 50 -7q43 0 79 20q62 34 83 112q9 34 10 76t-7 82q-15 83 -58 116l15 57q13 1 24 7zM725 725
q-19 10 -40 10h-28v60q0 23 -16 38.5t-38 15.5h-57q-7 0 -14 -2v95q72 -27 123.5 -84.5t69.5 -132.5zM532 690v105q0 6 4 10.5t10 4.5h57q6 0 10.5 -4.5t4.5 -10.5v-60h-28q-18 0 -32.5 -10t-20.5 -26l-5 -12v3zM492 947v-311q-11 -10 -23 -17v102q0 22 -16 37.5t-38 15.5
h-9v173q0 6 4.5 10.5t10.5 4.5h57q6 0 10 -4.5t4 -10.5zM242 705q-7 13 -21 21.5t-30 8.5h-35v46q0 6 4.5 10.5t10.5 4.5h57q6 0 10 -4.5t4 -10.5v-76zM281 649v212q0 6 4.5 10.5t10.5 4.5h57q6 0 10 -4.5t4 -10.5v-87h-8q-23 0 -38.5 -15.5t-15.5 -37.5v-97q-13 8 -24 19v6
zM344 721q0 6 4 10t11 4h56q6 0 10.5 -4t4.5 -10v-118q-19 -5 -39 -5q-24 0 -47 7v116zM139 870q44 45 101 68.5t120 23.5h9q-2 -7 -2 -15v-34q-7 2 -14 2h-57q-22 0 -38 -16t-16 -38v-28q-7 2 -14 2h-57q-22 0 -38 -16t-16 -38v-46h-20q-22 0 -41 -10q21 84 83 145z
M147 157l-99 479q-5 23 10 41.5t39 18.5h94q6 0 10.5 -3t6.5 -8q22 -56 71.5 -91t111 -35t111.5 35t71 91q2 5 7 8t10 3h95q23 0 38 -18.5t11 -41.5l-55 -267q-42 -2 -84 -14t-74 -31l-4 -2q5 18 5 36q0 36 -18.5 67t-49.5 49.5t-67.5 18.5t-67.5 -18.5t-49 -49.5t-18 -67.5
t18 -67.5t49 -49t68 -18q27 0 52 11q-3 -9 -5 -18q-12 -49 7 -99h-245q-18 0 -32 11.5t-17 28.5zM387 262q-40 0 -68 28t-28 67.5t28 68t67.5 28.5t68 -28.5t28.5 -68t-28.5 -67.5t-67.5 -28zM489 106q-1 2 -2 3q-16 30 -18 62q-2 35 14 64q19 33 57 55q33 19 77.5 30
t84.5 11q-39 -55 -54 -110q-21 -78 15 -138q6 -10 14 -20l-4 -2q-39 -22 -77 -22q-34 1 -63 20q-27 18 -44 47zM945 283q7 -35 6 -73t-9 -68q-12 -43 -39 -69q-25 -24 -59 -31q-32 -6 -65.5 2.5t-57.5 30.5q-26 23 -36 56q-11 36 1 80q8 30 26 63t42 60.5t47.5 43t43.5 15.5
l50 -14q17 -9 30 -34.5t20 -61.5zM931 502q-8 2 -15 -2t-9 -12l-18 -66l-17 4l17 67q3 8 -1.5 15t-12 9t-11 8.5t-1.5 14t8.5 11t14 1.5t11.5 -9.5t12.5 -10t15.5 2.5t15 3t11.5 -8.5t1.5 -14t-8.5 -11.5t-13.5 -2zM931 502zM179 478q-1 8 -8 12t-15 2.5t-12.5 -8
t-2.5 -14.5l49 -239q2 -7 7 -11.5t12 -4.5l4 1q8 1 12.5 8t2.5 15zM179 478zM158 536q6 6 6 14t-6 14t-14 6t-13.5 -6t-5.5 -14t5.5 -13.5t13.5 -5.5t14 5zM158 536z" />
    <glyph glyph-name="circular" unicode="&#xe008;" 
d="M501 1001q-136 0 -253 -68q-113 -67 -180 -180q-68 -117 -68 -252.5t68 -252.5q67 -113 180 -180q117 -68 252.5 -68t252.5 68q113 67 180 180q68 117 68 252.5t-68 252.5q-67 113 -180 180q-117 68 -253 68h1zM673 474l-250 -156q-7 -5 -15.5 -5t-16 4t-12 11.5
t-4.5 15.5v313q0 8 4.5 15.5t12 11.5t16 4t15.5 -5l250 -156q15 -9 15 -26.5t-15 -26.5z" />
    <glyph glyph-name="cocktail" unicode="&#xe009;" horiz-adv-x="1126" 
d="M765 751h-717q-20 0 -34 -14.5t-14 -34t14 -33.5l361 -362v-244h-104q-21 0 -36.5 -15.5t-15.5 -37.5q0 -4 3 -7t7 -3h355q4 0 7 3t3 7q0 22 -15 37.5t-37 15.5h-104v244l361 362q15 14 14.5 33.5t-14 34t-34.5 14.5zM407 365l-324 323h647zM845 1001q-60 0 -113 -24
t-92 -66.5t-59 -97.5h67q27 57 80 91t117 34q59 0 109.5 -29.5t80 -79.5t29.5 -109.5t-29.5 -110t-80 -80t-109.5 -28.5q-52 0 -100 25l-46 -46q68 -42 145 -42t143 38q63 38 101 101q38 66 38 142.5t-38 142.5q-38 63 -101 101q-66 38 -142 38zM845 626h-1l-52 -53
q27 -10 53 -10q42 0 78 21t57 57t21 78.5t-21 78.5t-57 57t-78 21q-38 0 -70.5 -17t-54.5 -46h125q38 0 65.5 -27.5t27.5 -66t-27.5 -66t-65.5 -27.5z" />
    <glyph glyph-name="delivery" unicode="&#xe00a;" 
d="M735 798q0 32 -23 55t-55 23h-125v-31h125q19 0 33 -14t14 -33v-479l-31 31v323q0 6 -5 10.5t-11 4.5h-125q-7 0 -11.5 -4.5t-4.5 -10.5v-126q0 -9 -8 -13l16 -27q4 2 8 5q13 -12 31 -12t31 12q10 -8 22.5 -10.5t24.5 1.5v-124q-14 9 -31 9v66q0 6 -4.5 10.5t-11.5 4.5
h-187q-7 0 -11.5 -4.5t-4.5 -10.5v-126h-31v63h-32v-78q0 -7 5 -11.5t11 -4.5h214q3 -5 7 -10l73 -86q-20 -38 -20.5 -81.5t19.5 -82.5l6 -13l28 14l-6 13q-18 34 -16.5 72.5t21.5 71.5q3 5 2.5 10t-3.5 8l-81 94q-7 9 -7 19v2q0 9 5 16t13 10.5t16.5 1.5t14.5 -8l125 -124
l22 22l-42 42v510zM579 379q-14 -8 -21.5 -21.5t-7.5 -29.5h-34v110h63v-59zM422 438h63v-110h-63v110zM641 594h-31v63h31v-63zM579 657v-63h-32v63h32zM563 532q-6 0 -11 4.5t-5 10.5v16h32v-16q0 -6 -4.5 -10.5t-11.5 -4.5zM626 532q-7 0 -11.5 4.5t-4.5 10.5v16h31v-16
q0 -6 -4.5 -10.5t-10.5 -4.5zM297 109v329h-31v-329q0 -32 23 -55t55 -23h250v32h-250q-19 0 -33 13.5t-14 32.5zM407 125h187v-31h-187v31zM829 341l-50 64l-25 -20l51 -63q24 -30 24 -69v-222h31v222q0 50 -31 88zM485 250h31v-31h-31v31zM422 250h32v-31h-32v31zM547 250
h32v-31h-32v31zM344 422q7 0 11.5 4.5t4.5 11.5v63h62q33 0 55.5 22.5t22.5 55.5v313q0 32 -22.5 55t-55.5 23h-313q-32 0 -55 -23t-23 -55v-16h32v16q0 19 13.5 32.5t32.5 13.5h313q20 0 33.5 -13.5t13.5 -32.5v-313q0 -20 -13.5 -33.5t-33.5 -13.5h-78q-6 0 -11 -4.5
t-5 -11.5v-45l-68 57q-4 4 -10 4h-141q-19 0 -32.5 13.5t-13.5 33.5v266h-32v-266q0 -33 23 -55.5t55 -22.5h136l89 -75q4 -4 10 -4zM94 657v-47q0 -19 13.5 -33t33.5 -14h250q19 0 33 14t14 33v47q0 8 -7 13q7 12 7 26t-7 26q7 5 7 13v31q0 39 -19 71t-51.5 51t-70.5 19
h-62q-39 0 -71 -19t-51 -51t-19 -71v-31q0 -8 7 -13q-7 -12 -7 -26t7 -26q-7 -5 -7 -13zM407 610q0 -6 -5 -11t-11 -5h-250q-7 0 -11.5 5t-4.5 11v31h282v-31zM125 696q0 7 3.5 12.5t9.5 8.5l56 -44h-45q-10 0 -17 6.5t-7 16.5zM383 719q10 0 17 -6.5t7 -16.5t-7 -16.5
t-17 -6.5h-139l59 46h80zM219 693l-34 26h68zM125 766q0 30 15 55t40 40t55 15h62q30 0 55 -15t40 -40t15 -55v-15h-282v15zM188 829h31v-31h-31v31zM250 829h32v-31h-32v31zM313 829h31v-31h-31v31zM532 813h62v-31h-62v31z" />
    <glyph glyph-name="fast-food" unicode="&#xe00b;" 
d="M755 782q5 -3 11.5 -3t11.5 4t6.5 9.5t0 11.5t-6.5 10t-11 4t-11.5 -3t-8 -9.5t0 -13t7.5 -10.5zM840 743q-5 7 -13 8t-14 -4t-7.5 -13t3.5 -14q58 -77 89 -166t34 -184l-76 -24q-12 86 -39 160v0q-27 75 -68 136v0q-140 204 -438 245l24 75q96 -2 185.5 -33t166.5 -88
q5 -4 11 -4q10 0 15.5 7.5t4.5 15.5t-8 12q-85 63 -184 96t-205 33q-7 0 -12 -3.5t-7 -10.5l-269 -833q-5 -18 -1 -36t17.5 -31t31.5 -17.5t37 0.5l285 91v-78q0 -34 23.5 -58t56.5 -25h2q34 0 58 23.5t24 57.5v132l103 33v-89q0 -28 20 -48.5t49 -20.5t49 20t20 49v133
l149 47q6 2 10 7t4 11q0 106 -33.5 205t-97.5 183zM725 607q29 -46 50 -101q-12 -6 -26 -6q-24 0 -40.5 16.5t-16.5 39.5q0 17 9 30.5t24 20.5zM202 391q-12 -12 -27 -17.5t-31 -4.5l44 138q8 -5 14 -11q22 -22 22 -52.5t-22 -52.5zM138 118q0 23 16.5 39t39.5 16
q13 0 25 -6t20 -17zM455 229q-21 -21 -51.5 -21t-52 21t-21.5 51t21.5 51.5t52 21.5t52 -21.5t21.5 -51.5t-22 -51zM783 323q-6 -2 -10 -7.5t-4 -11.5v-147q0 -12 -8.5 -21t-21 -9t-21.5 9t-9 21v115q0 10 -8 16t-18 3l-141 -45q-6 -2 -10 -7t-4 -12v-146q0 -17 -13 -29.5
t-30.5 -12t-30 13t-12.5 30.5v92q23 9 41 26v0q33 33 33 79t-33 79q-22 21 -51 28.5t-58 0t-50 -28.5q-33 -33 -33 -79t33 -79q10 -10 22 -17l-69 -22q-12 23 -34.5 36.5t-48.5 13.5q-39 0 -67 -27.5t-28 -67.5q0 -5 1 -11q-13 -1 -23 9q-12 11 -6 27l61 189q8 -1 17 -1
q23 0 43.5 8.5t37.5 24.5q33 34 33 81t-33 80q-13 13 -30 21l98 304q272 -35 404 -209q-22 -13 -35.5 -35.5t-13.5 -48.5q0 -39 28 -67t68 -28q20 0 39 8q20 -63 30 -135zM527 670q0 24 -9 45t-25 38q-23 23 -53.5 30.5t-61 0t-53.5 -30.5q-16 -17 -25 -38t-9 -45t9 -45.5
t25.5 -38t38.5 -25.5t45 -9t45 9t38.5 25.5t25.5 38t9 45.5zM465 615q-23 -24 -56 -24t-56 23t-23 55.5t23 55.5t56 23t56 -23t23 -55.5t-23 -54.5zM604 502q-20 20 -46.5 27.5t-53.5 1t-47 -26.5q-6 -6 -6 -14t5 -14l117 -120q6 -6 14 -6t14 5q20 20 27.5 46.5t1 53.5
t-25.5 47zM586 399l-86 88q19 10 40 6.5t36 -18.5t17.5 -36.5t-7.5 -39.5z" />
    <glyph glyph-name="fax" unicode="&#xe00c;" 
d="M532 156h62q13 0 22.5 9.5t9.5 22.5v62q0 13 -9.5 22.5t-22.5 9.5h-62q-13 0 -22 -9.5t-9 -22.5v-62q0 -13 9 -22.5t22 -9.5zM532 344h62q13 0 22.5 9t9.5 22v63q0 13 -9.5 22t-22.5 9h-62q-13 0 -22 -9t-9 -22v-63q0 -13 9 -22t22 -9zM719 156h63q13 0 22 9.5t9 22.5v62
q0 13 -9 22.5t-22 9.5h-63q-12 0 -21.5 -9.5t-9.5 -22.5v-62q0 -13 9.5 -22.5t21.5 -9.5zM719 344h63q13 0 22 9t9 22v63q0 13 -9 22t-22 9h-63q-12 0 -21.5 -9t-9.5 -22v-63q0 -13 9.5 -22t21.5 -9zM156 751h-62q-39 0 -66.5 -27.5t-27.5 -66.5v-563q0 -39 27.5 -66.5
t66.5 -27.5h62q39 0 66.5 27.5t27.5 66.5v563q0 39 -27.5 66.5t-66.5 27.5zM188 94q0 -13 -9.5 -22t-22.5 -9h-62q-13 0 -22 9t-9 22v563q0 13 9 22t22 9h62q13 0 22.5 -9t9.5 -22v-563zM938 682v105q0 26 -18 45l-151 151q-18 18 -44 18h-318q-39 0 -66.5 -27.5
t-27.5 -66.5v-813q0 -39 27.5 -66.5t66.5 -27.5h500q39 0 66.5 27.5t27.5 66.5v500q0 30 -17.5 54.5t-45.5 33.5zM751 913l99 -100h-99v100zM375 907q0 13 9.5 22t22.5 9h281v-125q0 -26 18.5 -44t44.5 -18h125v-125h-501v281zM938 94q0 -13 -9 -22t-22 -9h-500
q-13 0 -22.5 9t-9.5 22v469h563v-469z" />
    <glyph glyph-name="fire" unicode="&#xe00d;" horiz-adv-x="750" 
d="M422 954q0 23 -16 36t-36.5 10.5t-33.5 -20.5q-56 -82 -76 -148q-17 -58 -6 -107q8 -40 38 -79q17 -23 59 -63q44 -43 60 -66q27 -39 27 -79q0 -34 -17 -63t-46.5 -46t-63.5 -16.5t-62 18t-44.5 46.5t-16.5 63v167q0 20 -14.5 33.5t-33.5 13.5t-33 -15q-45 -47 -73 -109
q-34 -75 -34 -155q0 -101 51 -189q50 -85 135 -135q88 -51 189.5 -51t189.5 51q85 50 134 135q52 88 52 189q0 87 -31 160q-24 60 -73 117q-29 33 -91 91q-46 42 -66 64q-33 36 -49 68q-19 38 -19 79z" />
    <glyph glyph-name="food-delivery" unicode="&#xe00e;" 
d="M99 608h39q8 0 13.5 6t5.5 14t-5.5 14t-13.5 6h-39q-8 0 -14 -6t-6 -14t6 -14t14 -6zM57 513q8 0 13.5 6t5.5 14t-5.5 13.5t-13.5 5.5h-37q-9 0 -14.5 -5.5t-5.5 -13.5t5.5 -14t14.5 -6h37zM843 610q-31 0 -52 21.5t-21 52t21 51.5t51.5 21t52 -21t21.5 -51.5t-21.5 -52
t-51.5 -21.5zM843 717q-14 0 -24 -10t-10 -24t10 -24t24 -10t24 10t10 24t-10 24t-24 10zM554 626q-60 0 -116 -24t-97 -68q-6 -6 -6 -14.5t6 -13.5t14 -5t14 6q36 39 84 59.5t101 20.5q9 0 14.5 5.5t5.5 14t-5.5 14t-14.5 5.5zM335 290h-1q-8 0 -13.5 -5.5t-5.5 -13.5
t5.5 -14t14 -6t14 6t5.5 14t-5.5 13.5t-13.5 5.5zM786 290v0q-8 0 -14 -5.5t-6 -13.5t6 -14t14 -6t13.5 6t5.5 14t-5.5 13.5t-13.5 5.5zM930 352v0q-4 65 -29 125l23 29q27 35 38 53q19 29 28 57q11 32 11 67q0 43 -21.5 79.5t-57.5 58t-79 21.5t-79 -21t-57.5 -57
t-22.5 -79q-25 9 -51 15q4 11 4 23q0 34 -24.5 58t-58.5 24t-58 -24t-24 -58q0 -12 3 -23q-67 -15 -125 -52h-108q-8 0 -13.5 -6t-5.5 -14t5.5 -14t13.5 -6h58q-28 -25 -50 -56h-104q-9 0 -14.5 -5.5t-5.5 -13.5t5.5 -14t14.5 -6h79q-15 -27 -25 -56h-165q-8 0 -13.5 -5.5
t-5.5 -14t5.5 -14t13.5 -5.5h154q-8 -33 -10 -67q-23 -4 -38 -21.5t-15 -41.5q0 -26 19 -45t45 -19h43q14 -29 41 -47t60.5 -18t60.5 18t41 47h36q8 0 14 5.5t6 14t-6 14t-14 5.5h-26v8q0 22 -8 42h245q-9 -20 -9 -42l1 -8h-27q-8 0 -14 -5.5t-6 -14t6 -14t14 -5.5h37
q13 -29 40.5 -47t60.5 -18t60 18t41 47h43q27 0 45.5 19t18.5 45t-18.5 45t-45.5 19zM723 683q0 33 16 60t43.5 43.5t60 16.5t60 -16.5t43.5 -43.5t16 -60v0q0 -41 -20 -81q-13 -25 -49 -72l-12 -15l-30 -35q-5 -6 -8.5 -6t-8.5 6l-30 35l-12 15q-36 47 -49 72
q-20 40 -20 81v0zM554 766q18 0 31 -12.5t13 -30.5q0 -9 -4 -17q-20 2 -39.5 2t-39.5 -2q-4 8 -4 17q0 18 13 30.5t30 12.5zM223 263h-33q-10 0 -17.5 7.5t-7.5 17.5t7.5 17.5t17.5 7.5h41q-8 -20 -8 -42v-8zM335 198q-30 0 -51.5 21.5t-21.5 51.5t21.5 51t51 21t51 -21
t21.5 -51t-21.5 -51.5t-50.5 -21.5zM786 198q-30 0 -51.5 21.5t-21.5 51.5t21.5 51t51.5 21t51 -21t21 -51t-21 -51.5t-51 -21.5zM862 352q-32 30 -76 30t-77 -30h-298q-32 30 -76.5 30t-76.5 -30h-40q5 87 51.5 159.5t120.5 114.5q76 43 164 43q71 0 134 -28q7 -35 28 -71
q13 -22 45 -64l43 -52q17 -19 39 -19q15 0 29 10q16 -45 18 -93h-28zM930 263h-33v8q0 22 -8 42h41q10 0 17.5 -7.5t7.5 -17.5t-7.5 -17.5t-17.5 -7.5zM560 263q-8 0 -13.5 -5.5t-5.5 -14t5.5 -14t13.5 -5.5v0q8 0 14 5.5t6 14t-6 14t-14 5.5z" />
    <glyph glyph-name="french-fries" unicode="&#xe00f;" 
d="M855 829q-12 11 -28 14.5t-32 -1.5l-19 -6l5 29q3 16 -2.5 31.5t-17.5 26t-28 14t-31 -0.5l-67 -20q-14 -5 -25 -15t-16 -24v30q0 18 -9 33t-25 23l-63 31q-14 8 -30.5 7t-30.5 -9.5t-21.5 -22.5t-7.5 -31v-30l-8 42q-3 16 -13.5 28.5t-25.5 18.5t-31.5 3.5t-29.5 -12.5
l-55 -42q-14 -11 -20.5 -27.5t-3.5 -33.5l9 -50l-23 7q-16 5 -32 1.5t-28 -14.5t-17.5 -26.5t-2.5 -31.5l38 -217q-10 -6 -17 -14q-9 -12 -12.5 -25.5t-0.5 -27.5l98 -438q4 -22 21.5 -35.5t39.5 -13.5h415q22 0 39.5 14t21.5 35l98 438q5 20 -3.5 38.5t-26.5 28.5l38 217
q3 16 -2.5 31.5t-17.5 26.5zM764 767l49 15l-39 -226q-22 -10 -31 -31.5t-29 -41.5zM653 856l66 20l-77 -441q-23 -10 -48 -16v104zM532 907v-499h-2q-19 -1 -29.5 -1t-29.5 1h-2v530zM337 938l70 -370v-149q-20 4 -38 12l-87 465zM197 812l-9 -30l54 -16l55 -293
q-28 24 -39 51q-9 22 -31 32l-39 226zM708 63h-415l-97 438q18 -46 63.5 -81.5t108.5 -55.5t133 -20t132.5 20t108 55.5t64.5 81.5z" />
    <glyph glyph-name="group-1" unicode="&#xe010;" horiz-adv-x="2126" 
d="M1452 188q20 -37 12 -86v-7q2 -13 -4 -24q-4 -7 -14 -19l-6 -7q-5 -4 -10 -4q-12 0 -19 -8q-3 -1 -10 -2.5t-10 -2.5q-14 -1 -40 -9l-23 -6q-11 -3 -34 -2h-13q-22 -1 -64.5 -5t-64.5 -5h-20q-25 -2 -36 0q-15 3 -34 3q-11 0 -33 -1.5t-33 -1.5q-21 -2 -64 0h-31
q-23 0 -50 5q-16 2 -48 10l-10 2q-40 9 -58 15l-27 8q-8 2 -17 12v0q-7 8 -22 22l-10 10q-10 12 -13 27q-1 12 1 30q3 27 15 54q10 22 29 49q4 6 11 10.5t15 4.5q15 0 15 10l3 2q18 10 35 29q13 13 28 35q7 9 19 29q18 29 30 40q14 13 34 44q11 17 17 25q20 25 54 79
q1 1 2 3.5t3 4.5q0 -5 2 -8q0 1 1.5 2.5t1.5 2.5q-2 10 2 15.5t17 9.5q1 0 3.5 1t3.5 1q6 6 17 0q15 -7 40 -27q9 -10 24 -20v0q19 -14 27 -24q5 -8 19 -17q12 -6 28 -23q12 -12 19 -17q12 -9 32 -32q16 -18 26 -27q12 -12 32 -27q10 -7 26 -24q12 -13 18 -18v0
q12 -12 19 -18q11 -9 22 -14q2 0 3 -1v-2q3 -10 17 -24q8 -9 12 -15t8 -7.5t12 0.5l-8 10q-9 14 -14 19q-13 13 -17 35q0 8 -8 12q-13 7 -24 19q-7 8 -20 25q-7 10 -24 28.5t-24 28.5q-12 15 -29 29q-11 8 -33 23q-19 14 -49 45l-12 12v1q0 1 -2 1q-13 7 -35 25
q-13 11 -20 16q-12 9 -23 13q-7 4 -22 12.5t-22 12.5q-4 2 -6.5 2t-5.5 -2q-20 -12 -29 -20q-14 -12 -22 -27q-8 -11 -15 -15q-17 -15 -46 -49q-16 -24 -35 -40q-2 0 -2 -4q-10 -20 -28 -40q-11 -12 -35 -34v0q-30 -30 -54 -42q-6 -2 -9 -7t-3 -11q-8 -47 -39 -78l-3 -2
q-4 -2 -5 -4.5t3 -6.5l-1 -1q0 -1 -2 -1q-22 -19 -48 -31q-29 -14 -57 -16q-21 -2 -61 -1l-31 1q-18 0 -52 5v0q-44 5 -66 5q-17 0 -41 12q-10 6 -33 12q-16 5 -23 8q-10 4 -45 12q-47 11 -58 17l-20 12q-35 20 -50 33q-4 0 -9 4q-3 2 -10 9l-8 9q-25 30 -32 47
q-2 4 -12 32.5t-10 31.5q0 35 3.5 83.5t3.5 81.5q0 17 8 34q6 13 19 30q9 14 35 36q24 20 33 33q7 8 24 25l13 12q13 10 45 27l38 20q20 11 29 20q5 4 11 6q3 1 12 2.5t14 3.5q7 2 22 8.5t22 8.5q44 18 127 52v0q32 12 83 25l78 19q10 3 30.5 5.5t30.5 4.5q47 11 100 15
q7 0 12 3q11 3 25 4q8 1 25 1q24 0 36 2q49 7 114 2q69 -5 103 -5q11 0 34 -4l17 -3q73 -5 112 -10q12 -1 34 -1q46 -1 69 -6q14 -2 41 -10q20 -5 30 -7q33 -9 61 -5q18 0 36 -8q16 -7 51 -12h3q16 -4 47.5 -6.5t47.5 -5.5l29 -8q59 -13 88 -24q25 -10 73 -35q35 -20 52 -27
q29 -17 61 -44v-1q44 -34 66 -54q17 -14 32 -38q9 -13 24 -43q8 -17 13 -39q3 -13 6 -41l3 -24q1 -9 -3 -20q-2 -7 -9 -20l-3 -6q-15 -37 -34 -77q-6 -12 -24 -33q-11 -12 -15 -19q-11 -15 -28 -31q-10 -11 -31 -29l-12 -11q-7 -5 -21.5 -9t-27.5 -13q-23 -12 -39 -15l-8 -2
q-42 -9 -63 -15q-35 -9 -61 -20q-5 -3 -18 -2q-9 1 -13 0l-16 -4q-26 -6 -38 -11q-36 -14 -83 -18q-13 -1 -40 -2t-41 -2q-17 -4 -31 7q-5 2 -15 2zM329 511l15 3q-10 20 -12 29q-6 -10 -7 -17.5t4 -14.5l7 1q7 0 6 2l-6 -1q-7 0 -7 -2zM566 307v2v-2v2v-2v2v-2
q-5 1 -8.5 -1t-8.5 -7v0q-2 -3 -8.5 -10.5t-8.5 -11.5q-12 -22 -7 -38t29 -21q0 2 -3.5 4.5t-3.5 6t-2 9.5q-4 12 -1 19l6 16q9 23 16 34zM1084 886q0 -1 1 -2q5 -5 8 -5q6 0 10 -8.5t1.5 -12t-13.5 -7.5l-14 -4q-19 -7 -30 -10q8 -2 23.5 -2t22.5 -1h3q16 -2 21 -1
q8 2 8 14v9q0 8 -2.5 12.5t-9.5 7.5q-10 5 -29 10v0q1 2 0 3t-3 -1t3 -2zM1455 297l21 -30q10 -17 14 -26q7 -15 8 -28q0 -5 2.5 -5t4 1.5t1.5 3.5q0 5 4 10l3 5q11 16 5 27q-13 19 -25 28q-16 12 -38 14q1 2 0 3t-3 -1zM371 765h2h-2h2h-2h2h-2q-7 -1 -17 -8q-13 -9 -22 -9
q-6 0 -9.5 -8.5t-3 -18.5t5.5 -15q11 -15 29 0l14 10q18 15 30 20q1 1 4.5 0t5.5 2l3 8q7 17 9 27q4 17 -10 24l-3 2q-4 2 -1.5 5.5t-5.5 7.5q-2 0 -3.5 -1.5t-1.5 -3.5l-2 -7q-4 -9 -3 -11t11 -8l2 -1q2 0 3.5 -1.5t1.5 -3.5q-3 -2 -7.5 -2t-10.5 5q-3 4 -4 4l-2 -2
q-3 -6 -1 -10q5 -8 7 -15v-12q0 -5 -4.5 -5t-4.5 5v15q-13 -13 -10 -25v-7q0 -2 -1.5 -3.5t-3.5 -1.5t-3.5 1.5t-1.5 3.5v10q-5 -2 -11 -9l-3 -4q0 -2 -2 -3t-3 1v0q-5 5 -3 7.5t7 7.5l5 5q17 8 20 24zM598 304v-1v1q0 -2 1 -2t-1 2q-8 -6 -16 -25q-3 -10 -6.5 -15
t-1.5 -11.5t8.5 -11.5t19.5 -6t18 1.5t14 8.5l5 3q14 6 24 18q6 8 16 25l2 3q5 11 -3 20t-19 5l-14 -3q-38 -10 -50 -19q5 5 3 7zM1345 837q0 2 1 2t-1 -2v2v-2q-4 0 -11 -3q-9 -3 -13 0t-11.5 5.5t-11.5 4.5q-8 5 -29 0q-3 0 -6 -7l-1 -5q-2 -6 -7.5 -7.5t-7.5 2t-6.5 7.5
t-7 7.5t-3.5 9.5q-2 13 6.5 23.5t22.5 18.5q17 8 34 5t22 -14q4 -7 8 -8.5t12 0.5q3 0 6 2l4 1q26 4 39 -13q2 -2 4 -7q3 -8 7.5 -8t10.5 4.5t9 5.5l15 8q15 3 22 15q-2 0 -7 1t-8 1h-3q-49 5 -71.5 12.5t-49.5 7.5q-17 0 -47 4l-21 3q-17 1 -51.5 5t-51.5 5l-93 7l-2 1
q-3 1 -4.5 0.5t-0.5 -3.5l-1 -4q0 -4 0.5 -6t5.5 -2q15 0 19 -5q13 -10 42 -20q14 -4 22.5 -13.5t6.5 -23.5v-5q0 -13 -10 -20q-6 -4 -21 -9q-9 -4 -13 -5q-28 -13 -48 -13q-8 0 -8 -7q-1 -5 -1 -16t-1 -16q-7 -17 -9 -40q-1 -14 -1 -44q0 -12 10 -5l14 7l64 37
q11 6 13.5 8.5t0.5 5.5t-12 11l-5 5q-10 7 -12 12q-7 11 5 15l13 4q14 4 20 2t16 -18q0 -1 1 -2.5l2 -3t2 -1.5l5 -1l10 2q13 1 20 3q11 2 18 8l15 7q6 2 15 6l10 4q15 8 42 24l26 15q14 4 27 13zM273 662q0 15 17 12q3 0 6 -2.5t4 -2.5q9 2 28 -3l9 -2q10 -2 14 -2
q9 0 15 5q4 4 10.5 4.5t11.5 -4.5q9 -7 5 -20q-2 -8 -8 -11q-4 -1 -12 -1q-13 0 -20 -4q-9 -5 -9 -19q0 -3 -4 -9l-3 -5q-5 -5 -3 -10q2 1 5 1q6 1 8 6q7 12 26 27v0q32 24 66 18q18 -2 54 -14q18 -6 26 -8t20 -6l13 -5q7 -1 23 1q12 2 18 2q-18 13 -16 29q1 13 16 28
q5 6 14 6q5 0 16.5 -3.5t15.5 -2.5q-2 2 -2 5q-9 11 -9 19.5t9 19.5q5 7 19 17q8 5 26 11.5t26 10.5q-14 5 -39.5 16.5t-38.5 15.5l-1 -9q0 -2 -2 -5q-9 -13 -33 -13.5t-35 10.5q-7 7 -7 17q0 5 2 18v0q0 1 1.5 3t-1.5 4q-17 9 -53 24l-30 13q-6 3 -12 -2l-25 -15
q-9 -6 -10.5 -12t6.5 -15q13 -15 7 -42q-4 -22 -17 -40q-6 -8 -23 -17q-13 -7 -19 -12q-10 -10 -24 -8.5t-25.5 10.5t-14.5 20.5t1 24.5l-6 -6q-11 -13 -18 -17t-26 -13t-28 -14q-14 -9 -19 -16.5t-16.5 -21.5t-15.5 -21q-8 -12 -10 -21t-1 -26l1 -14q0 -7 2.5 -8.5
t9.5 -1.5q14 2 44 4q33 3 46 3q-2 5 -9.5 12.5t-9.5 12.5q-11 29 0 59q-4 11 14 15q0 -6 -6 -12q-5 -5 -6 -8q-7 -25 5 -49q7 -17 21.5 -19.5t24.5 11.5q3 3 3.5 4.5t-3.5 3.5l-5 3q-6 4 -9 4q-15 6 -21 19t1 25l3 5q3 5 5 10q-9 -4 -13 3zM1269 570q10 -9 12 -17
q6 -6 -2 -15q-3 -2 -9 -5.5t-8 -6.5q-16 -8 -32 -5q-10 2 -28 10q-14 5 -21 7v0q-10 5 -13 7.5t-5.5 7t-0.5 8.5q5 12 9 17q6 9 17 12q43 13 71 -10q2 7 0 10t-8 7l-9 6q-7 4 -10 7q-5 4 -7 10q0 2 -7 2q-18 0 -54 5l-27 3q-29 2 -90 2q5 -10 10 -12q26 -15 46 -40
q10 -11 25 -23q10 -7 29 -20l10 -6l8 -5q8 -4 11 -7q6 -9 21 -18q13 -7 18 -12q2 -2 2.5 -2t2.5 2q5 9 14.5 13t19.5 4q25 0 36 -2q19 -3 32 -15q5 -5 11 -15l4 -7q8 -16 11 -25q5 -15 1 -27q-5 -13 -6 -39q0 -13 -0.5 -19t1.5 -6q10 -5 18 -5q36 0 56 3l25 2q35 2 53 5
l151 22q-2 4 -7 8l-3 2q-9 13 -8 26.5t13 20.5q6 6 11.5 3t5.5 -13t3 -12q6 -4 13.5 -5t13.5 1.5t10 8t4 12.5t3.5 9t8.5 -2q13 -8 20 3q3 3 1 8t-5.5 6.5t-3.5 6.5l1 3q0 2 1 3h16q17 0 29.5 -12.5t1.5 -26.5q9 1 20 9l10 5q17 5 35 19q10 8 28 26v0q10 9 25 34l7 10
q7 7 17 27q-13 6 -31 9q-11 1 -33 2l-21 1q-8 0 -8 -7q-4 -21 -24 -25q-8 0 -5 -4q1 -8 -5 -20q-4 -6 -5 -10q-9 -21 -39 -30q-4 -1 -11 -1t-11 -1q-44 -11 -88 0q-9 2 -29 12l-4 2q-23 9 -35 16q-19 11 -29 27q0 2 -5 2q-6 2 -6.5 4t6.5 6h2v2q8 15 19.5 23t29.5 9l6 1
q47 5 70 9q30 5 51 -5q26 -13 49 -19q0 5 5 13l2 4v0q-54 5 -78 10q-33 5 -99 8l-33 2q-10 0 -30 1q-41 1 -63 6q-4 0 -6 -1t-3 -4q-21 -28 -59 -32q-10 0 -29 -5v0q-63 -18 -110 7v3q-2 0 -2 -1.5t2 -1.5zM1428 649q-6 5 -21 7q-11 1 -16 3l-8 3q-27 7 -43 10q-20 1 -41 -8
q-13 -5 -37 -21l-5 -3l8 -1q7 -1 11 -1q5 0 10 4q2 2 4.5 2t2.5 -2q2 -4 4.5 -5t7.5 0h3q15 0 22 -2l3 -1q4 0 5.5 1t1.5 5t7 4q2 0 4.5 -1.5t0.5 -2.5q-2 -9 6 -8h1q17 0 27 -2q5 0 5 2q0 8 5 5q7 0 7 -4t1.5 -5t6.5 -1q17 4 34 -5q3 -1 11 0.5t11 1.5q5 0 9 -4h3
q15 -4 44 -3h14q17 0 48 -3.5t45 -3.5q31 0 90 -8l32 -4l47 -8q-14 21 -37 32q-7 4 -8 8t3 12q3 4 10 9t10 8l2 1q2 0 0 2h-5q-24 0 -46 7q-20 8 -34 5q-5 0 -5 2q-2 6 0 8t7 2q3 0 8 -1q11 -2 14 1q8 6 18 8q6 2 17 3l9 2q8 2 22.5 -4.5t17 -13.5t5.5 -7.5t8 1.5l3 1
q32 12 61.5 -2t38.5 -47q6 -17 2.5 -26.5t-19.5 -20.5q5 0 13 1.5t12 1.5q7 0 7 10q0 2 2.5 8t2.5 9q2 12 2 19q-1 11 -10 18v2q3 4 1.5 6t-4.5 5l-4 4q-4 5 -12 14q-13 13 -17 21q-13 19 -42 32q-19 7 -31 17l-59 37l-9 5q-18 10 -28 15q-16 8 -31 12v0q-15 5 -20 7
q-15 7 -45 15q-35 8 -52 17q-8 4 -16 5.5t-14 -0.5l5 -5q6 -5 5.5 -6.5t-6.5 -5.5l-9 -5q-3 -6 -16 -13q-7 -4 -9.5 -6t-4 -1t-1.5 3q1 15 6 22.5t18 16.5q-21 12 -45 7q-14 -2 -41 -16l-12 -5q3 -3 10 -3q4 -1 9.5 -0.5t8 -0.5t4.5 -4q6 -9 0 -23.5t-17 -18.5q-5 -1 -7.5 0
t-4.5 5v0q-5 5 -7 5l-35 8q-7 2 -11 2q-7 1 -13 -2q-15 -8 -22 9l-24 -14q-20 -17 -47 -30q-17 -7 -51 -20q-6 -2 -8.5 -4.5t-2 -7t6.5 -8.5l7 -6q6 -6 8 -9q3 -5 -1 -12v-2q0 -12 -6 -20t-16 -10q-27 -5 -76 -19q-9 -2 -13.5 0.5t-5.5 11.5q-3 11 1 36l1 3l-34 -20
q-37 -23 -56 -34q7 -7 10 -8.5t12 -1.5q23 0 68 -2.5t68 -2.5q5 0 15 -1q13 -1 20 -1q11 1 19 7q5 4 17 10t17 10q20 13 51 17q12 2 25 -1q8 -1 24 -5l15 -4q24 -4 36 -8q20 -5 35 -14q9 -5 12 -12v-2q2 -4 -0.5 -6t-6.5 3q-15 2 -37 10zM883 238q-9 0 -29 1t-32 1
q-4 0 -12 1q-17 3 -27 -1q-26 -9 -44 0q-5 4 -9 3t-10 -5l-9 -9q-12 -11 -17 -17q-8 -11 -11 -21q-7 -25 -9 -37q-4 -21 0 -40q1 -7 10 -18.5t14 -13.5q24 -4 73 -24l13 -5q17 -6 25 -8q15 -3 28 -2q7 0 20.5 1t21.5 1h3q49 -4 75 -2q16 2 51 1l27 -1q4 0 11 -2q10 -2 16 0
q19 4 56 4q14 0 34 5q17 4 34 0l15 -3q19 -4 29 -4l10 1q12 1 17 -1q41 -8 71 15q10 7 25 10q8 2 25 3l11 2l13 2q21 5 33 5q3 0 5 2.5t2 4.5l3 10q5 13 5 20q0 22 -2 31q-2 17 -11 28q-17 28 -48 52q-13 8 -20 -3q-1 -1 -4.5 -2t-5.5 -3q-5 0 -14.5 -1t-14.5 -1
q-55 0 -110 -7q-75 -11 -158 9l-5 2q-37 9 -56 12q-30 5 -57 4q-12 3 -39 1q-14 -1 -22 -1zM1418 341q17 -7 51 -12q30 -6 56 -37l1 -1q10 -13 14 -20q7 -13 7 -26v-5q-1 -8 0 -10q4 -3 12 -1l5 1q32 0 67 7q26 5 65 16l4 1q10 3 16 3q17 0 46 5q49 10 71 20l8 3q17 8 26 9
l3 1q25 5 34 12q3 4 13 8l38 16q10 7 26 23q10 10 15 14q18 15 34 37q10 13 27 40q13 19 28 58l6 18q5 11 5.5 18.5t-2.5 16.5l-7 22q0 2 -3 5l-3 1q-18 7 -27 9q-15 3 -28 0q-11 -4 -23 -0.5t-22 -2t-12 -15.5q0 -8 -4 -17q-3 -5 -10 -15l-51 -59q-9 -8 -28 -22
q-14 -11 -21 -17q-2 -2 -4 -2l-1 -1q-16 -7 -49 -20q-54 -22 -80 -36h-1q-14 -5 -24 -8l-93 -15q-12 -2 -37.5 -5.5t-37.5 -6.5q-33 -5 -104 -9zM615 341q-7 1 -22 2q-53 4 -73 8q-12 2 -34 9l-17 6l-16 3q-35 7 -52 11q-30 8 -50 18q-4 2 -13 6q-13 7 -21 9q-12 3 -25 10
q-8 4 -23.5 14.5t-24.5 14.5q-20 10 -43 26q-26 17 -40 31q-22 22 -22 44q0 3 -2 5q-8 3 -21.5 10t-20.5 10q-42 11 -68 7q-7 0 -7 -7q-13 -54 -3 -94q8 -34 23.5 -67.5t35.5 -55.5l2 -3q1 -2 3 -2q1 -7 6 -11t13.5 -9t25.5 -16t25 -16l8 -6q13 -12 22 -13q13 -5 66 -14
q28 -4 36.5 -6.5t24 -9.5t23.5 -9t21.5 -3.5t20.5 -2.5l113 -15q4 0 12.5 -3t13.5 -2q-6 7 -7 16q-1 5 0 16v10q2 19 14 34q8 9 28 24l5 4q18 15 43 15q0 -2 9 -1.5t11 3.5zM796 467v0q-13 10 -17 15q-7 10 -5 19q4 19 8 28q6 14 16 24q14 17 27 25q15 11 34 15q7 0 17.5 5
t19 4.5t17.5 -7.5q3 -3 9 0v0q20 15 30 25l4 4q10 12 20 16q5 1 12 8q5 4 8 6q-4 2 -8 1l-2 -1q-13 0 -40 -5q-17 -4 -26 -5q-19 0 -29 -2v0q-34 -10 -52 -14q-29 -6 -53 -6q-5 0 -6.5 -1t1.5 -6q2 -2 1 -7l-1 -5q-2 -11 -14 -20.5t-27.5 -12t-26.5 4.5q-8 8 -10 3
q-9 -10 -21 -12q-7 -1 -24 1l-6 1q-14 4 -22 20q-3 5 -3 17q-8 -4 -33 -6q-19 -2 -25 -4l6 -8q8 -10 11 -17q15 -27 -3 -49q-22 -26 -56 -29q-10 -3 -24 -8v0q-51 -20 -86 -17q-59 4 -102 47q-4 3 -3.5 7.5t3.5 11.5l2 8v10q-19 -5 -27 -5q-68 -8 -100 -15q-2 0 -4 -1.5
t-1 -3.5q4 -7 31 -18q22 -9 26 -14q24 -29 38 -41q20 -18 47 -28q9 -3 26 -12q23 -11 35 -15q20 -7 69 -17q33 -6 48 -10q49 -12 137 -12q29 0 44 4q28 10 51 42q6 6 17.5 20.5t17.5 21.5q12 12 24 20zM769 844q-3 -12 -3 -29q0 -6 -2.5 -10t-9 -3.5t-11 4.5t-4.5 11
q4 16 -13.5 24.5t-32.5 0.5q-15 -16 -34 -13q-7 0 -11.5 2.5t-6.5 2t-4 -4.5q-10 -14 -15 -24l113 -38q15 -4 24 -2q23 5 52 5q19 0 53 -2q16 -2 26.5 -12t12.5 -23v-3q1 -5 0 -7.5t-5 -4.5q-6 -5 -4 -7t7 -2l8 -3q55 -13 82 -25q12 -5 15.5 -2.5t3.5 15.5v116q0 9 -3 12
t-14 5l-6 1q-14 2 -20 4q-10 4 -15 12l-3 4q-7 10 -8 15q-3 7 -1 18q4 19 19 22q6 2 17 7.5t17 7.5q10 4 20 3q4 0 4.5 2t0.5 7v3q0 3 -1.5 4t-6.5 1q-13 -1 -40 -2q-39 0 -60 -3q-12 -3 -38 -4t-39 -3.5t-38.5 -5t-37.5 -4.5l-64 -15q-23 -8 -78 -19q-36 -7 -51 -11
q-12 -3 -34 -6q-28 -3 -42 -9q14 -8 46 -17q25 -7 37 -12q1 0 3.5 -1.5t3.5 -1.5q5 0 6 1.5t-1 6.5q-2 7 -1 10.5t5 7.5l6 6q9 13 29 16t39 -3q4 -2 6.5 -1.5t6.5 3.5q14 10 26 10q26 2 39 -3q18 -7 25 -29v0q0 5 2 5t3 2l2 3q3 6 7 7.5t12 0.5l8 -1q27 0 61 -17
q3 -2 12.5 -0.5t11.5 -1.5l4 -4q6 -7 11 -9q7 0 7 -7q-3 -7 -12 -3q-10 7 -24 3q-12 -3 -34 -3q-3 0 -9 1.5t-8 1.5q-37 -14 -49 17zM1140 457q3 -17 -5 -29q-6 -9 -22 -20q-5 -4 -11 -4q-4 0 -12 1h-9q-6 0 -11 11l-1 2q-4 5 -8 6t-12 -1q-15 -4 -23 -0.5t-16 14.5
q-1 3 -2 9t-3 9q-4 18 2 36q4 12 18 33q6 6 17 10q4 1 6 1t4 -4q6 -6 2 -12v0q-5 -20 -5 -30.5t5 -15t17.5 -4.5t17 -5.5t12.5 -6.5q5 0 14 3v0q11 1 12 5t-7 12v0q-7 7 -12 7q-10 5 -22 17q-44 45 -81 69q-6 5 -10 4t-9 -6q-1 -1 -4.5 -4t-5 -6t2.5 -7q10 -15 14 -35v0
q3 -15 3 -22q1 -12 -3 -22q-15 -43 -49 -69q-7 -6 -13.5 -8t-15.5 -2h-10q-13 -2 -22.5 1t-16.5 14l-2 -3q-15 -13 -36 -47q-17 -27 -28 -39q-1 -2 -1 -2.5t1 -2.5q6 -3 5.5 -5.5t-5.5 -6.5v0q-8 -6 -20 -22t-21 -23q60 -2 177 3h4l-3 5q-5 6 -5 10q-8 43 27 71q6 6 17 10
q21 4 32 10q8 3 22 1q8 -1 12.5 -1t13 -1.5t13.5 -1.5q7 0 17 -4q21 -13 39 -40l5 -6q10 -12 10 -19l-3 -14q-3 -17 -6 -24q-5 -13 -13 -21q24 -5 127.5 -1.5t118.5 9.5q-3 3 -9.5 10.5t-9.5 11.5q-18 23 -42 20q-3 0 -9.5 -1.5t-9.5 -1.5q-6 0 -17 -1t-17 -1l-42 7
q-25 4 -32 25q-3 10 -9 19v0q-13 20 -17 31q-6 17 -3 33l1 8q1 11 3 15q4 8 13 12q3 1 3 2t-1 2l-2 1q-15 15 -24 22zM2091 598q8 0 11 3.5t-1 10.5l-10 23q-11 27 -19 39.5t-21 26.5q-8 8 -25 22l-20 16q-54 43 -85 63q-17 11 -52 29q-21 10 -31 16q-30 17 -56 27
q-58 18 -101 27q-19 5 -59 6q-20 0 -31 1l-7 1q-16 2 -24 4q-12 4 -20 12q-2 2 -5.5 1.5t-6.5 -3.5q-10 -5 -10 -12q0 -5 12 -5q14 -4 40.5 -10t40.5 -10q7 -2 13 0t14 7h2q2 -1 2 -2q16 -10 50 -20q23 -7 33 -12q35 -15 49 -27l22 -16q29 -20 44 -29q18 -3 29 -14
q16 -16 35 -26.5t26 -20.5q20 -25 28 -38q14 -22 19 -44l1 -3q3 -9 11 -11q2 0 3.5 -3t1.5 -5q2 -7 9 -11.5t13 -3.5q29 10 63 -7q10 0 12 -2zM32 603q12 4 42 3q20 -1 41 -3l6 -1q5 -1 8 -0.5t5 3.5l6 4q7 6 9 11q5 15 17 32q7 11 23.5 31t22.5 30q5 8 30 21q17 8 22 11v1
q29 24 43 39q40 34 62 49q1 0 2 1.5t2 1.5q8 2 21 3q17 2 26 7q1 0 3 1q6 3 4 6l-1 2q-5 11 -11 13q-26 7 -49 -3q-4 -1 -11 -4.5l-11 -5.5l-23 -7q-26 -8 -38 -13q-20 -9 -34 -21q-1 -2 -21 -6q-16 -3 -18 -4l-15 -10q-24 -14 -35 -23q-19 -14 -28 -29q-6 -9 -16 -17
q-6 -5 -19 -14q-22 -13 -31 -23v0q-10 -10 -10 -17q0 -10 -10 -25q-4 -5 -9 -16q-3 -6 -4.5 -8.5t-0.5 -7.5q3 -8 0 -12zM361 556q-1 -1 -5.5 -1t-6 -1t-0.5 -6q2 -10 17 -24q14 -13 26 -19q10 -5 30 -11q11 -3 22 -4q15 -2 20 -1l19 5q23 5 34 10q30 15 42 25v0q5 5 10 2
q7 0 7 7q3 13 -3 25q-3 6 -14 19l-5 6q-3 3 -7 3t-9.5 -1.5t-7.5 -1.5h-3l-100 -15l-15 -3q-17 -4 -26 -4q-5 0 -7 -1.5t2 -6.5q1 -2 0 -3.5t-3 -2.5t-4.5 -1t-2.5 2q-2 4 -5 4.5t-5 -1.5zM954 302q0 -9 1 -12.5t7 -14.5q11 -22 36 -15h5q4 -4 7 -4t8 2l5 2q9 6 9 -5
q0 -2 3 -5q6 -2 19 -6q26 -9 39 -9h4q6 0 8 1t1 7l2 2q6 5 7 13q0 4 -2 14l-6 13q-9 20 -16 29l-5 7q-5 8 -9 12q-5 6 -13 8l-39 10h-12q-17 -3 -39 -12q-2 0 -3.5 -1.5t-1.5 -3.5q-18 -18 -15 -32zM434 893q17 -3 25 -14q5 -5 7 -5q4 2 13 5q15 5 21 9q9 9 22 13l16 3
q33 7 48 14t39 13q14 3 43 8l30 6q9 1 25 1t24 2q28 6 63 2h17q32 -1 47 3q7 1 21.5 4.5t22.5 4.5q14 3 42 6.5t43 6.5q5 0 5 7q2 4 -3 3h-2q-10 2 -27 2q-7 0 -21 -1t-20 -1q-14 0 -39 -1.5t-37 -1.5l-18 -1q-24 -2 -37 -3q-19 -3 -35 -8q-49 -13 -110 -17q-15 0 -36 -5
q-12 -3 -37 -10q-20 -5 -30 -8q-1 0 -2 -1t-2 -1q-38 -17 -66 -20q-18 -2 -27 -4q-13 -4 -25 -11zM1501 930q-7 1 -20 2q-20 0 -29 3v0q-68 15 -100 20q-24 5 -76 5v0q-18 1 -54 4q-58 6 -87 6q-5 0 -13.5 1t-13.5 1q-8 1 -26 5q-27 5 -42 5h-2q-6 1 -7 -3t4 -9v0
q3 -3 13 -6.5t14 -6.5q20 -11 51 -7q27 3 75 -2q10 0 15 -3q7 -5 15 -6q5 -1 17 -1q71 0 129 -10l5 -1q14 -4 22 -4q10 1 23 -1q8 -1 24 -6l12 -3q19 -5 29 -5q8 3 16 14q3 6 6 8zM854 701q-6 3 -19 9l-21 9q-4 2 -6 1.5t-5 -4.5q-2 -2 -4.5 -1.5t-2.5 3.5t-1 4t-4 3l-3 1
q-9 4 -26 8q-12 2 -18 4l-2 1q-3 1 -5 -1t0.5 -3.5t4.5 -1.5t3 -2t0 -5t-5.5 -3t-7.5 5q0 5 -2 5q-32 4 -61 -15q-12 -5 -20 -22q-2 -5 0 -7.5t7 -4.5q50 -15 98 -5l20 3q24 4 36 4q22 0 44 15zM952 676q-1 0 -2.5 1.5t-2.5 1.5q-11 5 -24 8q-7 1 -23 3l-12 1q-20 4 -31 -5
q-28 -21 -64 -24q-11 -2 -32 -1l-17 1l-3 -1q-44 -4 -67 -2q-15 2 -17.5 0t-2.5 -17q0 -9 6.5 -13.5t15.5 -1.5q20 8 37 5q12 -2 36 3q44 9 66 13q37 7 66 9q15 0 34 6q12 4 37 13zM1684 575q-2 2 -5 1l-2 -1q-30 -7 -61 -7q-12 0 -23 -3q-9 -3 -21 -9q-17 -10 0 -22
q5 -4 14 -6l8 -2q29 -19 63 -22q10 -1 29 -4q39 -5 59 -3q30 3 49 19q4 4 5 10t-2.5 7.5t-10 6.5t-9.5 6q-6 4 -21 7.5t-21 7.5q3 -9 -2 -13q-3 -2 -12 -5v0q6 0 16.5 -1t14.5 -1q8 0 14 -5t6 -12q3 -13 -15 -18q-25 -8 -46 3l-5 3q-10 6 -15 8q-8 4 -17 4q-2 0 -3.5 1.5
t-1.5 3.5v-5q0 -6 -3 -9.5t-9 -3.5q-12 -3 -24 5q-3 3 -2 8t13 12t17.5 7t7.5 -2q6 -4 14 -4t13 4v0q-15 5 -22 5q-11 3 -11.5 6.5t6.5 10.5q8 5 15 12v0zM1306 302q-8 5 -20 19l-10 10q-3 3 -10 11q-10 12 -19 17v-13q0 -9 -6.5 -16.5t-16.5 -7.5t-15.5 6.5t-5.5 18.5
t10 31q2 4 1.5 6t-4 4t-5.5 0t-2 -5q-5 -10 -12 -15q-3 -2 -12 -2q-4 2 -4.5 3.5t-0.5 6.5q0 7 1 11q1 5 6 8q9 6 8 10t-7 10l-3 3q0 1 -1.5 2t-1.5 3q-2 7 -9.5 -0.5t-7.5 -27.5v-5v-12q1 -7 5 -12v0q20 -30 24 -44t20 -18q5 -1 16 -2t16 -3t17 -2q15 0 43 4zM822 499
q-2 2 -4 2v0q-13 11 -12 16.5t16 13.5q2 0 4.5 1.5t3.5 1.5q14 7 22 -8l22 27q-13 0 -13 10q0 5 3 7.5t10 4.5q8 5 14 -2q2 0 3 -1.5t2 -1.5l6 5q9 7 10 10.5t-11 7.5l-5 2q-2 2 -5 1.5t-5.5 -4t-8.5 -5.5l-5 -2q-5 -1 -13.5 -4.5t-13.5 -5.5q-8 -3 -15 -10q-4 -4 -11 -12
t-11 -12q-6 -7 -10 -16q-3 -6 -7 -18l-2 -8q-2 -6 3.5 -14t12 -8t10 4.5t1.5 10.5q1 5 3 6t6 1zM1235 622q1 -4 6.5 -4.5t8.5 -2.5q19 -16 49 -23q18 -4 55 -7l13 1q16 1 24 -1q10 0 24 5v0q2 0 3.5 1.5t-0.5 3.5q-4 4 2 8q2 1 5 0t3 -3q1 -5 2.5 -5t4.5 1l2 2q5 0 10 9
q0 3 -2 3v0q-5 0 -13.5 1t-13.5 1q-11 2 -34 3t-34 2l-9 1q-10 1 -14 0q-8 -2 -12 -11q0 -2 -7 -2q-2 0 -3.5 1.5t-1.5 3.5t2.5 4.5t2.5 5.5l-10 1q-44 3 -63 1zM1340 381q0 17 2 22q6 11 5 25q-1 8 -5 23l-2 6q-10 29 -32 32q-24 5 -37 5q-21 -1 -36 -12q3 -3 11 -8l8 -5
q2 -1 4 1l1 2q4 6 14.5 7t17.5 -5q6 -3 6.5 -7.5t-1.5 -12.5v-2q0 -1 -1.5 -3.5t-1.5 -3.5q-2 -3 -1.5 -5t3.5 -4l1 -1q2 -2 5 -1.5t5 3.5v0q5 5 9 8q11 7 15 -5q4 -10 2 -15.5t-14 -14.5zM349 575q3 1 10 3q13 5 19 5q30 5 88 10q3 0 10 0.5t10 1.5q6 3 7 10l2 2
q-9 3 -26 8q-22 8 -35 10q0 -3 3.5 -5t2 -4.5t-5.5 -1.5l-2 1q-4 2 -4 5t4 5q-20 3 -46 -12t-37 -38zM915 479l-2 -1q-5 -5 -4.5 -8.5t5 -4t6.5 -1.5h5q9 -1 12.5 -8.5t-0.5 -13.5q-9 -14 -22 -17q-18 -7 -22 10q0 5 -5 7q-7 -9 -7 -12t7 -12l3 -3q7 -11 19 -7q15 4 30 15
q21 25 34 66q7 26 -8 52q-1 4 -3.5 4t-5.5 -4l-15 -20q11 -1 16 -8q2 -5 3 -15l1 -9q3 -10 -10 -15l-5 -1q-9 -3 -15 -3q-9 1 -17 9zM1386 285q0 -14 12 -18q10 -2 25 -17l10 -17q3 -5 12.5 -8.5t13.5 -1.5q8 4 11 11.5t-1 13.5q-10 18 -30 31q-13 9 -41 20l-1 1q-4 1 -6 -3
q-5 -5 -5 -12zM1913 610q-3 30 -25.5 45.5t-54.5 8.5q-25 -6 -54 -27l-3 -2q-2 -1 -2 -2.5t3 -3t4.5 -2.5t3.5 0l1 3q4 6 9 9t13 5l3 1q25 4 39 2q32 -4 41 -27l2 -6q3 -8 6 -11q1 -2 2 -5t3.5 -3t4.5 2.5t2 5.5q2 2 2 7zM1245 851h2q13 17 27 17.5t27 -14.5q5 -5 9.5 -5.5
t9.5 2.5q9 8 18 6.5t16 -10.5q2 -2 4.5 0.5t3.5 1.5q3 -3 6.5 -0.5t5.5 2.5t5 -5q1 -1 0 1v0q-2 7 -9.5 13t-15.5 6q-14 0 -29 -7q-11 -8 -14 7q0 12 -10 15q-19 11 -37 0q-10 -5 -14 -10q-7 -8 -5 -20zM1027 497q-9 -13 -10.5 -29.5t6.5 -27.5q3 -6 8.5 -7.5t10.5 2.5
q12 7 20 4t17 -14l7 -7q11 -2 24 5.5t15 18.5q-14 -6 -25 -6t-21 9q-6 6 -13 2q-13 -5 -23 -1t-13 18q-3 10 -3 33zM859 723q7 -5 11 -2.5t4 10t7 7.5q4 0 3 3l-1 2q-6 12 -22 12q-7 2 -21.5 0.5t-21.5 -0.5q-18 3 -52 -2v0l16 -6q13 -4 18 -6l3 10q1 1 2 -1q8 0 8 -7
t3.5 -9.5t12 -2.5t8.5 -3q3 -1 11 -3l11 -2q-5 7 -4 11.5t6 8.5q4 3 8 -5q4 -11 -10 -15zM752 834q6 16 -13 25q-12 7 -29.5 4.5t-28.5 -12.5q-8 -8 -16.5 -2.5t-27.5 5.5q-14 0 -27.5 -8t-6.5 -17q7 18 25.5 23.5t35.5 -3.5q9 -6 17 2q0 4 26 5.5t30.5 -2.5t10.5 -14z
M1215 709q-4 -1 -12 -2q-16 -3 -24 -6q-2 -1 -6 -4t-6 -3q-21 0 -32 -15l-2 -2q-2 -2 -2.5 -3t1.5 -2.5t7 -0.5l3 1q20 7 64 17q5 0 13 5l4 2q5 5 2 8q-2 6 -8 5h-2zM979 898q-26 -15 -22 -42q1 -4 3.5 -4.5t8.5 2.5l7 2q9 3 17 -5q5 -4 20 -9q2 1 2 4t-2 3q-6 2 -10.5 2
t-14.5 -2q-5 -2 -10 2t-7 10q-4 9 3 15q5 4 9.5 4.5t12.5 -1.5q19 -5 19 -20v17q0 6 -1.5 7.5t-8.5 0.5q-9 -6 -16 -2.5t-10 16.5zM810 849h-12q-3 0 -7.5 1t-6 0.5t-1.5 -5t3 -7t10 -4.5h4q7 -1 10 0h34q18 -1 27 3q-22 0 -28.5 2t-18.5 2q-14 -1 -21 3h-2q-5 -1 -5 3
q0 7 7 7q4 -1 6 -5q0 -1 1 0zM708 595q-7 11 -11 12t-11 -7q-11 -11 -21.5 -11.5t-20.5 9.5q0 -14 10 -18q16 -5 27 -2q4 0 7 2t3 5q0 14 17 10zM1396 839h15q21 0 31 -17q1 -1 2.5 -4t3 -2t4.5 4t3 4q3 11 -8 15q-7 8 -23.5 8t-27.5 -8zM1730 482q-16 0 -46.5 5t-45.5 5
q7 -9 43 -12.5t49 2.5zM1833 568q-8 3 -16 3q-5 0 -16 -3l-4 -1q-3 -1 -3.5 -2t2.5 -4q9 -12 20 -10t17 17zM920 482q9 -3 20 2q9 2 11.5 5t0.5 12q-2 6 -4.5 7.5t-7.5 -2.5q-8 -6 -17 -20zM1735 679q14 -7 30.5 -7.5t25.5 4.5q-2 1 -6 4q-9 6 -16 4q-9 0 -34 -5v0zM290 622
q10 13 35 32v0q-7 0 -16 5l-6 3q-1 -5 -6 -14q-8 -15 -7 -26zM598 770q-9 6 -11.5 8.5t-8.5 13.5q-1 3 -4.5 3.5t-5 2t-3 0.5t-1.5 -3v-5q-1 -6 0 -9.5t5 -7.5q8 -4 16 -5t13 2zM1750 425h10q7 0 12 3.5t7 8.5q3 10 -12 15q-4 2 -5.5 1t-1.5 -6q6 -10 -10 -22zM1867 630
q-4 -13 -9.5 -21.5t-14.5 -15.5q9 0 24 10q11 5 11.5 8.5t-6.5 13.5q-2 0 -3 2zM598 657q-9 -15 -9 -22t11 -13q3 -2 20 -2q1 1 1 3l-1 2q-2 7 -13 20q-7 8 -9 12zM1113 763q2 -3 8 -9l9 -9q3 -3 10 0q3 2 2.5 3.5t-2.5 4.5v0q-8 13 -11 14t-16 -4zM293 620q7 -9 10.5 -9
t8.5 9q3 5 13 19v1q-9 -3 -21 -13q-7 -5 -11 -7zM1042 859q1 -2 -0.5 -3.5t-0.5 -2.5t6 -2l6 -2q4 -2 5.5 -2t2.5 3t-2 4.5t-9 2t-8 2.5zM1833 603q10 7 19 22q3 2 3.5 3.5t-3.5 1.5h-3q-7 1 -9 0q0 -4 -3 -13t-4 -14zM1198 721q-18 9 -23 10.5t-16 -0.5q13 -8 21 -10t18 0z
M727 615q13 -8 21 -7t13 12q-4 -1 -14 -2q-14 0 -20 -3zM1220 580q-5 2 -12 1l-5 -1q-3 0 -6 -3l-1 -2q0 -7 2 -8t5 0l5 1l5 5q4 6 7 7zM1045 871q12 0 16.5 -2.5t9.5 2.5v0q3 3 0 5l-1 2q-2 3 -4.5 4.5t-6.5 -1.5q-1 -1 -4 -2q-7 -3 -10 -8zM383 792q-19 -14 -29 -24l10 3
q14 5 16.5 7.5t2.5 13.5zM830 504q1 3 7 7l3 3q3 3 1.5 5t-4.5 2q-5 0 -15 -5q-2 -1 -1.5 -2.5t2.5 -3.5zM1684 395q-13 3 -19 8q-9 6 -10 20q-4 -15 5 -23t24 -5zM383 492q-7 4 -13 10.5t-11 11.5q6 -14 10 -18t14 -4zM1713 558q-9 7 -14 7.5t-13 -4.5q8 -5 12 -6
q7 -2 15 3zM1188 738q4 -1 11 -4l11 -3q-3 13 -6 13.5t-16 -6.5zM1818 607q1 4 4 10l3 10q0 1 2 3.5t-2 4.5q-7 0 -7 -5v-23zM1396 837q-11 3 -27 -3l-2 -1q-2 -2 -1 -3.5t3 -0.5h3q14 5 24 8zM332 627h-1h1q-5 -5 -15 -20q-1 -1 0 -2.5t2.5 -2.5t3.5 0t2 3zM356 647
q3 0 8 -1q9 -1 13.5 1t3.5 5v2q0 3 -2 1.5t-3 -1.5q-5 0 -12 -4q-5 -2 -8 -3zM913 435q5 2 11 8l3 4q2 2 1 3.5t-3 1.5q-6 2 -9 0t-3 -7v-10zM1040 888q9 10 12 15q-9 0 -10.5 -3t-1.5 -12zM1274 464q-7 0 -7 -2t9 -7v0q3 0 3.5 4.5t-0.5 5t-3 0.5zM1747 519q10 0 13 5
q0 5 -8 5q-4 0 -4 -6q0 -3 -1 -4zM1235 339q0 10 -3 15q-7 -8 -6.5 -10t9.5 -5zM1010 896v0q-9 5 -14 5q-2 0 -2 -3t2 -5q4 -4 14 3zM1716 526q3 -5 14 -6q5 0 8 -1q-10 5 -12.5 6t-9.5 1zM1803 610v10l1 3q3 7 -0.5 7t-4 -1.5t0.5 -4.5t1 -4v-1q-1 -2 -2 -2q0 -3 3 -5z
M1223 361q7 5 7.5 8t-2.5 7v0q-5 -10 -5 -15zM1318 430q-3 0 -7 -2h-3q-5 0 -5 -2.5t8 -2.5q2 0 4.5 2t2.5 5zM522 600q-2 5 -12 5q-5 2 -5 -5q0 -2 3 -2v0q4 2 14 2zM998 866q-2 -1 -6.5 0t-5 -2t1.5 -5q6 0 10 7zM978 540q-2 0 -6 -0.5t-6.5 0t-3.5 3.5q0 7 4 7t9 -8z
M2014 621q3 2 5 2t2 -2t-2 -3h-2q-2 0 -2.5 0.5t-0.5 2.5zM1582 143l-3 3q2 3 4 1.5t-1 -4.5h1h-1zM1088 920l-3 3h2.5t0.5 -3zM442 153q2 -3 1 -3t-1 3v-1v1zM1335 504q0 1 -1 2t1 1v-3zM403 156q-2 1 -3 3l3 -3l-3 3l3 -3l-3 3l3 -3h-2h2zM1706 585q-25 0 -39 20
q-11 16 -26 16q-27 5 -43 13q-12 8 -14 15.5t8 17.5q17 20 37.5 29t46.5 6q23 0 34 -1q19 -3 35 -12q17 -12 27 -31.5t5 -36.5q-14 -17 -28 -25q-19 -11 -43 -11zM1738 673q-2 -3 -2 -9.5t-2 -9.5t-2 -3.5t3 -3.5l3 -1q4 -1 7 1q5 8 3.5 13.5t-10.5 12.5zM1790 712
q-20 -3 -44 2q-14 2 -41 11q-21 7 -32 10q-34 10 -29 45q0 8 5 12t14 1h13q15 13 36 20q12 5 38 10l14 3q33 6 52 6q29 0 55 -13q6 -2 18 -8q18 -9 28 -11q14 -5 23 -14t9 -19q0 -26 -29 -35v0q-19 -7 -26 -7q-15 -1 -43 -7q-21 -5 -31 -7q-17 -2 -30 1zM1777 741h23v0
q16 4 25 4q14 2 27 0q8 -2 16 -1q5 0 16 3l4 1q13 6 16 3q7 -3 10.5 -1.5t8.5 7.5l4 4q8 8 -4 19q-6 7 -10 9q-7 3 -16 1q-2 0 -3 1l-3 2q-17 21 -55 26q-39 9 -91 -3q-28 -6 -41 -11q-21 -8 -34 -21v0q-7 -7 -8 -10q-2 -6 5 -10l9 -5q16 -8 24 -11q14 -4 27.5 0t26.5 0
q3 -3 7 -2t6 5q0 2 3.5 4.5t6.5 2.5q4 -3 1 -7q-1 -2 -1 -3q2 -2 1 -3.5t-1 -3.5zM1478 806q20 0 29 4q8 2 13 -0.5t10 -9.5q8 -16 8 -29q0 -16 -11 -30q-4 -3 -9 -11.5t-8 -11.5q-5 -6 -12 -9q-24 -13 -45 -16q-23 -2 -46 9q-8 5 -27.5 8.5t-28.5 8.5h-3q-4 -5 -8.5 -3.5
t-4.5 6.5q-2 7 0.5 11.5t9.5 4.5q11 0 20 6q6 4 16 14v0q6 5 18 16q19 18 30 26l8 2q25 7 41 4zM1384 725q52 -25 82 -17t54 56h-6q-10 -3 -23 -16v0q-1 -3 -9 -4q-10 -1 -14 -6q-7 -7 -19.5 -7.5t-22.5 4.5q-15 5 -26 0zM1468 771q5 0 15.5 -1.5t15.5 -0.5q9 0 15 5l2 2
q3 2 3.5 4t-2 7t-10.5 3h-3q-26 -13 -36 -19zM1410 754q32 7 62 36q-20 -2 -36 -13q-10 -6 -26 -23zM1436 745q15 -5 29 0l-5 1q-8 4 -12 4q-7 0 -12 -5zM1839 576q-10 0 -17.5 9t-5.5 17q0 2 2 4t5 2q7 -1 20 -1q19 2 28 -2l4 -2q3 -1 4.5 -2.5t1.5 -5.5t-3.5 -7t-6.5 -3
l-8 -3q-15 -6 -24 -6zM1410 615q3 0 6.5 -2.5t3.5 -4.5q-4 -8 -20 -13q-3 0 -6.5 2t-3.5 5q0 7 3.5 9t9 2.5t7.5 1.5zM1455 605q-4 -2 -8.5 0.5t-4.5 5.5t2 5t4.5 1.5l7.5 -1.5t7 -2.5t2 -5.5q2 -2 -0.5 -2.5t-9.5 -0.5zM1546 608q1 0 1 -1h1l-2 1l2 -4q3 -5 3.5 -7.5
t-5.5 -4.5q-2 -3 -5.5 -1.5t-3.5 4.5q0 13 9 13zM1553 371q-5 -8 -4 -22l1 -8q2 -10 0 -29v-16q0 -10 9 -10h20q14 0 18 5t1 18q-1 6 -7.5 19t-8.5 20q0 9 1.5 12.5t8 4.5t8.5 -4q2 -2 2 -9t6 -14q13 -21 13 -49q0 -7 -3.5 -12t-12.5 -7q-29 -5 -59 0q-7 0 -11 6t-2 13
q5 10 6 22q0 8 -1 23q-1 12 -1 18t-7 12l-9 4q-12 5 -18 6q-9 2 -18 -3q-3 -2 -7 -1l-3 1q-20 12 -24 38t11 43q12 14 33 23q13 6 38 12l4 1q59 15 110 -13q20 -10 31.5 -26.5t14.5 -38.5q0 -10 -7 -17q-2 -3 -6.5 -8t-6.5 -8q23 5 45 3q18 -1 43 -6q33 -4 62 -33
q9 -9 7 -18.5t-15 -17.5t-30 -8q-10 -1 -32 3l-18 2q-19 2 -38 12q-11 7 -32 21l-8 6q-10 10 -23 10q-19 0 -23 16q0 4 -6 4q-5 -3 -14 0q-6 3 -10 3t-9 -3q-6 -2 -13 -1l-7 1h1zM1647 393q-3 0 -3 -6q3 0 4 2t-1 4q16 9 16 20q-5 32 -32 45q-48 25 -101 10v0
q-23 -6 -33 -11q-18 -8 -29 -21q-7 -10 -7 -21t7 -18q-2 15 6 26q6 7 20 16q57 38 124 6q17 -4 25.5 -19.5t3.5 -32.5zM1725 319q0 11 -8 18q-5 4 -18 11v0q-19 10 -24 10.5t-15 -4.5l14 -10q15 -11 24 -16q14 -8 27 -9zM1738 322q16 -8 28 -9t24 6l3 2q3 1 4 2.5t0 4.5
q-3 6 -8.5 11t-8.5 2q-5 -3 -11 -4q-3 0 -10 1q-9 2 -14 0q7 -7 5 -10.5t-12 -5.5zM1559 400q4 4 5 14q1 6 2 9q2 17 -2.5 20.5t-23.5 -1.5h-2q-1 -1 -1 -3q3 -7 11 -20t11 -19zM1595 390q5 2 14.5 7t15 6.5t6 4t-1.5 6.5l-1 2l-10 10q-3 -7 -11.5 -18t-11.5 -18zM1537 397
q-4 6 -8.5 19t-8.5 20q-13 -7 -19 -13q11 -5 20 -12q6 -5 16 -14v0zM1582 442q0 -19 3 -32q3 3 9 10q11 10 11 16q-2 4 -12 4q-7 1 -11 2zM1514 387q-4 3 -13 12l-13 14q0 -15 4.5 -19.5t21.5 -6.5zM1520 384h2h-2h3h-3h3h-3l2 1zM1660 498q-8 0 -19 4q-8 4 -13 4.5t-4 5.5
t4 8q7 7 24 9.5t24 -2.5q10 -5 10 -16q0 -5 -4 -7.5t-9 -2.5q-2 0 -6.5 -1.5t-6.5 -1.5zM399 234q-23 -4 -55 7q-26 10 -26 32q0 27 13.5 41.5t41.5 17.5q4 0 8.5 1.5t8.5 1.5q22 11 51 7.5t52.5 -19t29.5 -37.5q2 -9 -0.5 -13t-12.5 -6q-17 0 -26 -13q-24 -12 -85 -20z
M468 319h-36q-10 0 -12.5 -3.5t-1.5 -5t4 -2.5l3 -2q3 -5 10 -2q2 2 3 2q8 0 16 3q12 3 14 10zM487 348q-19 -2 -41.5 9.5t-29.5 26.5q-5 14 6 26q24 28 88 42q17 2 48 17q17 9 27 12q4 2 5 5t1 8q0 3 2 5t4 2t4 -1.5t3 -1.5l1 -3q3 -8 2.5 -12t-6.5 -8q-13 -11 -20 -29
q-5 -11 -10 -34l-3 -12q-5 -31 -35 -36l-10 -5q-10 -7 -16 -9q-10 -4 -20 -2zM507 397q-7 0 -19.5 -6.5t-16.5 -19.5q0 -7 3 -7l10 -1q12 -1 16 1q3 0 2.5 6t1.5 16q3 7 3 11zM487 419q-11 5 -26 -1q-13 -5 -19 -12q-9 -6 -7.5 -13t10.5 -16q1 6 8 12q3 4 13 11q17 12 21 19
zM520 374q3 2 10.5 4t10.5 4q5 3 8 8q-15 0 -10 10q2 4 1 10q-1 3 -4 9q-11 -4 -14 -12q-2 -4 -1 -15.5t-1 -17.5zM565 455q-13 -19 -23 -26q-3 -3 0 -3v0q5 -2 6 -6t1 -10v0q7 9 10 20q3 9 6 25zM581 315q-18 0 -13 17q11 26 36 39l3 1q6 4 10 4q6 2 9.5 -2t3 -7t-3.5 -9
l-2 -4q-2 -12 -11 -20q-5 -5 -19 -13l-3 -2l-4 -1q-4 -1 -6 -3zM201 335q10 0 24 -2q17 -3 22 -8q9 -14 -7 -19q-8 -2 -33 -3.5t-35 -2.5t-10 2v5q-1 13 4.5 19t15.5 8q6 1 19 1zM861 566q-7 0 -7 3q-2 8 4 17.5t16 11.5q5 3 9.5 1t6.5 -7t0.5 -8t-6.5 -5q-5 -5 -18 -11z
M910 706q-20 0 -34 12q-9 7 -22 27q-7 12 -6.5 25.5t10.5 22.5l5 7q12 12 19 17q13 7 28 6q29 -6 46 -24q19 -20 12 -48q-2 -14 -22.5 -29.5t-35.5 -15.5zM929 777q7 0 10 1t3 5.5t-2.5 7t-8.5 4.5l-5 2q-5 0 -7 -6q-2 -3 -3 -4q0 -10 13 -10zM799 933q0 12 10.5 17t18.5 -4
q7 -4 17 -16l6 -7q5 -4 -2 -13t-14 -9q-10 0 -23 11.5t-13 20.5zM786 107q-10 -2 -29 4l-10 3q-15 5 -21 19.5t2 29.5q17 26 48 42q34 17 49 36q13 16 42 22q10 0 12.5 -3.5t1.5 -6.5t-4 -6v0q-13 -9 -17 -22q-2 -8 -2 -27q0 -6 -2 -19t-2 -20q0 -22 -20.5 -38t-47.5 -14z
M828 137q-12 9 -16 9t-16 -9l-10 -10q-3 -3 -5 -4.5t-5 1.5t-3 9q0 1 1 3t0.5 4t-4.5 3q-3 0 -5 2t-2 4t4.5 4t5.5 3q3 0 7.5 2t2.5 5q-6 11 -1 16q3 3 12 5l5 1q16 4 16 23q-6 -5 -19 -13t-20 -13l-4 -3q-20 -15 -28 -26q-5 -7 -3 -13.5t9 -9.5q17 -10 40.5 -8t37.5 15z
M835 146q8 17 -3 23q-3 2 -5 -0.5t-2 -5.5q-2 -4 -1 -5.5t4 -3.5q7 -3 7 -8zM841 211q-6 -9 -5.5 -16.5t5.5 -15.5v32zM292 686q29 -10 49 -29q12 -12 15 -23.5t-2 -18.5q-10 -13 -27.5 -20.5t-31.5 -2.5q-1 0 -4 2q-5 4 -9 4l-3 2q-6 4 -10 5q-6 2 -13 0q-25 -10 -45 10
q-18 17 -6 45q13 33 45 29q-6 9 -4.5 13t9.5 9l1 1q17 10 49 36v0q7 6 7 3q6 -5 12 -4q3 0 8.5 3.5t8.5 3.5v0q6 4 10 4t6 -7q0 -3 10 -3q4 -1 13 -2q14 -1 19 -5q13 -7 18 -15t5 -20q0 -7 -9.5 -15.5t-19.5 -10.5q-16 -6 -35 -4q-12 1 -35 7l-15 3h-16zM364 709q0 -3 5 -6
q4 -2 4.5 -3.5t-3 -4.5t-7 -1t-7.5 7l-2 1q-6 6 -9.5 7.5t-10.5 -0.5q-3 -2 -12 -3.5t-14 -3.5q6 -4 18 -4q8 -1 12 -2q22 -9 52 -3q10 2 15.5 8t0.5 11q0 3 -1 4.5t-6 -1.5v0q-6 -6 -10 -8q-7 -2 -16 2q0 3 -3.5 3.5t-5.5 -3.5zM321 719q18 4 48 7l24 2l-14 2q-20 4 -29 3
q-16 -2 -29 -14zM240 667q-12 -8 -15 -16.5t-1 -22.5q5 7 8 20t8 19zM1218 758q-3 -2 -10 -0.5t-11 0t-5.5 0t-3 5t-2.5 4.5q0 10 6 10q17 4 23 23q8 20 36 42q17 13 42 3q7 -4 8 -10q2 -3 2 -12q0 -7 -7 -20q-24 -24 -49 -39q-6 -4 -14 -6h-15zM1257 800q-1 -1 -2.5 -2
t-2 -2t2 -3t4 0t-1.5 7q21 5 26 19q0 10 -3 10h-16q-3 0 -3 -1.5t3 -1.5q4 -9 1 -16q-1 -4 -8 -10zM1251 793l-4 -3q-2 -2 -1 -2.5t4 -0.5t3.5 0.5t0.5 2.5zM240 475q-1 -2 -4.5 -7t-5.5 -6l-19 -10q-5 -2 -7.5 -0.5t-2.5 6.5q-2 3 -0.5 5t4.5 2q8 3 13 6t9 10q3 4 10 4
q3 -4 3 -10v0zM289 501q0 -5 -2 -7.5t-5 -2.5t-4.5 1t-1.5 6q0 9 10 9q3 0 3 -6zM179 449q-2 -4 -6.5 -5t-6.5 -2q-7 0 -7 3q0 7 10 7q5 3 7.5 2t2.5 -5zM331 455q-2 0 -4 2t-2 5t2 5.5t4 0.5q3 0 5 -2t2 -4q2 -5 0.5 -6t-7.5 -1zM393 478q0 -2 -2 -4t-4.5 -2t-4.5 2t-2 4
t2 4.5t5.5 2.5t4.5 -2t1 -5zM188 481q0 4 6.5 4t10.5 -4q0 -6 -4 -6q-6 0 -13 6zM292 436q0 2 0.5 2.5t4 0.5t4.5 -2t1 -8q0 -2 -2 -3.5t-5 1t-3 9.5zM354 504q0 -2 -2 -4t-4.5 -2t-4.5 2t-2 4t0.5 2.5t2.5 1.5t4.5 0t5.5 -4zM1069 111v0v3q0 6 6 13l4 -1q3 0 3 -2
q2 -3 0.5 -7t-3.5 -6l-1 -2q-1 -2 -3 -2q0 -9 -6 -6v10zM978 120q0 -6 -10 -6t-10 9.5t7 9.5q6 -3 9.5 -5.5t3.5 -7.5zM1030 127q-1 1 -4 2q-6 3 -6 7.5t3.5 7t6 2.5t4.5 -2t2 -4q0 -7 -1 -10t-5 -3zM1085 137q-5 0 -6 2t-1 5l1 2q0 5 3 7.5t6 2.5t5 -2t2 -4l-2 -5
q-2 -5 -3.5 -6.5t-4.5 -1.5zM1001 137q-5 0 -7.5 3t-2.5 7t10 9q4 0 6.5 -2t2.5 -4q0 -8 -9 -13zM1036 107q0 -2 -2 -4t-4.5 -2t-6 2.5t-3.5 6.5t1 5.5t5.5 0.5t7.5 -5zM1111 94q1 -1 3.5 -2.5t2.5 -4t-2.5 -6t-6 -3.5t-5.5 2t-2 5q0 9 10 9zM955 169q0 3 2 5t5.5 2t6 -2
t2.5 -4.5t-2 -4.5t-4.5 -2t-9.5 6zM1062 156q-3 0 -9 7v0q0 2 2 4t5.5 2t6 -2t2.5 -4t-3 -4zM949 137q0 -3 -2.5 -5t-4.5 -2t-4 2t-2 4.5t1 4.5l2 2q4 0 7 -2t3 -4zM1014 176q-3 0 -5 2t-2 4.5t2 4.5t4.5 2t4.5 -2t2 -5t-1 -4.5t-5 -1.5zM594 676q-4 0 -12.5 -1.5t-14 -1.5
t-5.5 3t2 5t4 2q7 2 12.5 0.5t13.5 -7.5zM669 709q-1 -1 -3 -4q-4 -6 -7 -6q-9 0 -9 10q0 4 3 7t6 3q10 -5 10 -10zM617 676q0 3 2 5t5.5 2t6 -2t2.5 -4.5t-2 -4.5t-4 -2q-5 0 -8 4zM692 670q-5 0 -7.5 2t-2.5 5t1 4.5t5.5 1.5t5.5 -2t1 -8q3 0 1 -1.5t-4 -1.5zM601 654
q0 -4 -5.5 -4t-6.5 2t-1 5t2 4t4 -1q4 0 5.5 -1t1.5 -5zM1800 498q9 1 18 -2q6 -2 17 -8l7 -3q6 -3 6.5 -6t-6.5 -8q-32 -18 -71 -13q-13 0 -13 16t13 20q6 4 29 4zM1816 478h-42q9 -4 29 -1q9 1 13 1zM1429 550q2 0 6.5 -1.5t7.5 -1t6 5.5q2 2 4 1t6 -4v0q2 -3 1 -5
t-4.5 -5t-5.5 -4.5t-5 1.5t-16 3q-9 0 -9 6q0 2 4 2t5 2zM1400 533q-4 0 -5 2t-1 5q0 5 1 8t5 5q5 0 7.5 -2t2.5 -5q0 -5 -7 -10zM1485 543q-5 0 -7.5 2t-2.5 4.5t2 4.5t4 2q5 0 8 -4l2 -2q0 -3 -2 -5t-4 -2zM1511 537q-7 0 -7 3t1 4.5t6.5 1.5t5.5 -3.5t-1.5 -4.5t-4.5 -1z
M754 725q-5 0 -7.5 2t-2.5 5t2.5 6t7.5 3q9 0 9 -5.5t-3 -8t-6 -2.5zM1650 390l-3 -3q-2 2 -0.5 4t3.5 -1v3v-3zM1520 384h1l1 1l-2 -1h3h-3h3h-3h2h-2zM1251 793l3 -3q0 -3 -3 -3v0h-2q-2 1 -2 3l1 2q1 1 3 1zM1816 478q-4 0 -13 -1q-18 -3 -29 1h42zM1722 767q-1 1 -4 2.5
t-4.5 2.5t-1.5 5q2 6 12 8q8 2 11 5t3 -6q1 -7 -1 -8.5t-6 -2.5q-8 -1 -9 -6zM1836 780l2 1q5 1 7 -4q0 -2 -2 -4t-4 -2q-5 -3 -8 -2.5t-5 5.5q0 4 -1.5 5t-5.5 3l-3 2q-3 0 -3 9l3 4q2 0 4.5 -2t2.5 -5q2 -6 8 -8q3 -1 5 -2zM1777 787q0 -4 -1.5 -5.5t-5 -1.5t-5 1.5
t-1.5 5t2 4.5t5 -1h2q2 -1 4 -3zM1800 797q-5 0 -6 1.5t-1 4.5q0 7 3 7t5 -3.5t2 -6.5q2 -2 1 -2.5t-4 -0.5z" />
    <glyph glyph-name="group" unicode="&#xe011;" horiz-adv-x="913" 
d="M728 379q17 -19 -7 -37q-15 -9 -35 -2l-1 1q-9 -1 -16 4q-4 4 -11 12l-3 4q-4 6 -15 16l-8 6l-3 2l-6 -1q-7 0 -9 -2q4 -10 13 -18q4 -2 8 -10l5 -7q3 -4 0 -11t-8 -12q-7 -7 -18 -8q-7 -1 -21 1l-7 1q-8 0 -11 1l-7 4l-8 8q-14 15 -20 24q-1 2 -4 6l-4 5q-7 12 -15 6
t-19 -3q4 -4 11.5 -13t11.5 -13q10 -9 15 -27q4 -10 -9.5 -15t-41.5 -7l-11 -1q-7 -1 -18 9l-7 4q-4 4 -7 6q-7 3 -10 9t-11 17q-13 18 -17 28q-7 -10 -19 -4q-8 4 -10 0q-1 -2 2 -6l36 -43l7 -6q6 -6 6.5 -13.5t-5.5 -12.5q-25 -23 -63 -15q-4 1 -7 5l-35 29q-9 7 -22 27
q-6 9 -9 14q-2 3 -4.5 8.5t-3.5 8t-5 3.5q-21 9 -36 31q-8 11 -26 29l-12 12q-15 12 -28 34l-12 15q-14 16 -20 26q-11 19 -19 38q-5 14 -9 19q-16 20 -17 39q-2 16 -19 35q-5 6 -16 18t-16 18q-2 3 -6.5 6t-6.5 6q-19 23 -10 58q4 9 4.5 15t9.5 11q5 0 15 3.5t14 4.5
q9 2 20 0q6 -1 19 -5l7 -2q28 -8 47 -22q12 -9 27 -8h16q16 2 24 1q24 -1 46 -7q10 -2 26 -17l5 -4q7 -6 21 -11l7 -2q5 -2 6 5q0 3 2 3.5t5 -1.5l3 -2q6 2 20 2q10 -1 14 0q7 2 20 -4l24 -12q7 -7 15 -5q16 0 22 2q28 6 50 -8q19 -9 35 -5q24 5 44 -11q27 -20 44 -40
q14 -19 31 -30q13 -11 33 -35q30 -37 47 -54l2 -2q2 -3 3 -6q3 -10 11 -20q4 -6 16 -18l5 -5q7 -8 17 -24l4 -7q2 -4 5 -5t3 -2.5t-3 -3.5l-1 -3q2 -1 3.5 0t2.5 1v0q4 1 4.5 -2t-1 -4t-2.5 0q-4 2 -5 -2v-1q-5 -4 -4.5 -6.5t4.5 -6.5l2 -3q19 -20 27.5 -32t-5.5 -18v0
q-23 -7 -34 -6q-17 -1 -25 14q-3 6 -13 16l-8 9q-11 16 -22 9zM446 413q-3 -1 -7 -5l-3 -2q7 1 10 7q1 -1 3 2v0q-2 1 -3 -2zM673 438q-4 0 -9 -5q-3 -3 -5 -4v0q4 -2 5.5 -2t2.5 3l6 8q1 -1 1.5 -0.5t-1.5 0.5v1v-1zM780 414q4 0 8 -6l3 -3q1 -2 3 -2.5t3.5 1.5t1 3t-4 2
t-0.5 2q3 4 0 9q-2 3 -2 4l-2 -1q-8 -4 -10 -9l-1 2l1 -2l-1 1zM344 287h2q-1 0 -1.5 0.5t-0.5 -0.5q13 22 39 22h8q10 1 16 -1l-9 10q-14 19 -23 27v0q-10 13 -14 22q-3 4 -12 10t-12 5q-6 -2 -20 -1q-10 0 -14.5 -1t-7.5 -3q-9 -11 -9.5 -14.5t7.5 -16.5l1 -3
q3 -4 8.5 -14t9.5 -14l11 -11q13 -11 21 -17zM554 641h1h-1q2 6 2 9.5t1 5t3.5 0.5t2.5 -2.5t-1 -3.5l-3 -18q-1 -2 0.5 -3.5t3 -1.5t2 1t-0.5 3l2 2v4q0 3 1 3.5t4.5 -1t-0.5 -7.5l-1 -1q-2 -5 -0.5 -9t6.5 -8q1 1 1 3.5t1 4.5q-3 6 4 5q3 0 3 -4v-3q-2 -9 -1 -13
q1 -6 8 -10q2 4 1 12l1 1q1 3 3 3t2 -2v-3v-2q0 -3 -1 -5q-7 -15 4 -29l4 18q2 3 4 3q6 0 3 -5q-1 -2 -1 -7q-2 -9 -6 -13l-1 -1l3 -4q3 -6 6 -8q1 -4 8 -10l3 -3l5 19q2 5 4 4q4 0 2 -5q-1 -10 -4 -16q-4 -9 4 -16v-1h2l6 18q1 4 3.5 2.5t2.5 -2.5t-1 -4v0q-2 -2 -2.5 -6
t-1.5 -6q-3 -6 -3 -9q3 -6 12 -18l8 -12q0 13 5 24l1 1q0 4 2.5 3t2.5 -2.5t-1 -3.5l-1 -4q-2 -12 -5 -18t1 -15q3 11 12 30v2q-1 3 2 2q4 -2 2 -7l-10 -27q-3 -3 -2.5 -6t3.5 -7l1 -2q2 -3 5 -3l1 3l7 31l5 10q0 1 1.5 1.5t3 -0.5t0.5 -3l-5 -9q-1 -6 -4 -19l-3 -13
q-2 -6 -1 -8t4 -6.5t5 -5.5q6 -3 6 -9q3 1 4 4l8 22q2 3 3.5 4t4 0t0.5 -5l-2 -3q-1 -3 -3 -10q-4 -14 -10 -18h-1q0 -1 1.5 -2t2 -6t2.5 -7q6 -5 -2 -9q4 -3 11 -3h5q10 -2 6 8l-1 -2q-1 -1 -2.5 -2t-3 -0.5t0.5 5.5l9 13q2 5 4.5 3.5t3 -3.5t-1.5 -3l-1 -1q-1 -2 1 -4
l19 17q6 4 9 0.5t4.5 -2.5t3.5 4q6 4 10 4l-31 35q-4 4 -8.5 13.5t-8.5 13.5v0q-33 38 -49 59q-20 24 -35 34t-25 24q-7 13 -18 19q-4 2 -11 9l-3 3q-13 14 -28 19t-29 -2q3 -1 5 -5t4 -5v1q3 6 5.5 4.5t2 -3.5t-0.5 -3q-2 0 -1 -8zM605 426q0 -3 1 -9v-8l2 -1l16 35
q4 -2 4 -3.5t-2 -4.5t0 -6q2 1 5 3t5 1t4 0l2 1q2 3 9 8l4 5q1 0 2.5 1.5t3.5 0t-1 -4.5v-1l-5 -4q-6 -4 -9 -7v-2l1 -1q4 -1 6 3v0q2 3 8 7l5 4q7 5 8 -2q0 -1 0.5 -1.5t1.5 0.5l1 1q1 1 0 1.5t-2 2.5v1q-11 8 -16 20l-6 13q-7 16 -13 24l-9 13q-9 14 -14 20q-19 20 -31 44
q-5 13 -16 25q-24 25 -33 43q-5 19 -24 21q-2 0 -6 3l-3 2q-10 5 -19.5 5t-27.5 -4l-11 -3q12 -6 22 -19q5 -7 16 -23q1 14 9 24q2 5 5 3t1 -7l-8 -18q-4 -4 -3 -10t5 -11l2 -4q7 -10 10 -15q1 -2 3.5 -4t5 -1t2.5 7l7 15q2 4 4.5 2.5t0.5 -4.5v-1l-4 -11q-5 -11 -10 -14
q5 -6 7 -11q1 3 2 7l3 9q2 7 5 10q0 1 1.5 1.5t3 -0.5t-0.5 -4l-10 -21q-1 -3 -5 -2h-2q2 -2 5 -6.5t5 -5.5q3 3 5 12l3 9l1 1q0 3 2.5 2t3.5 -5v-2q-1 -11 -6.5 -17t3.5 -14l9 24q1 4 3.5 2.5t1.5 -4.5l-5 -14q-10 -11 3 -24q1 -1 1 -2v-1l1 -2q5 -8 10 -11q9 -21 21 -31
q4 -5 6 -4.5t6 5.5l6 13q1 1 2.5 2t2.5 0q4 -1 2 -6v0q-6 -11 -11 -14q-9 -5 -2 -17l6 -17v-6q0 -8 2 -11zM343 660l-0.5 -0.5t1.5 -1.5q7 -8 17 -26l7 -11q5 -8 13 -26l6 -12q1 -4 6 -10t7 -9q10 -21 20 -34l7 -9q14 -21 34 -46l7 -8q13 -16 19 -24q9 -15 10 -29l1 -1
q1 -5 4 -5t2.5 -1.5t-3 -3.5t-7.5 -6.5t-8 -6t-1.5 -5t1 -5t2 -3.5t3.5 -1q9 -1 14 -1q7 1 12 6q-7 6 -9.5 6.5t-9.5 -4.5q0 -1 -1 -1t-2 -1l-1 -1q-2 -1 -4.5 1t1.5 4v0q3 1 6.5 7t8.5 7q0 8 6 13q1 3 -1.5 4t-0.5 4l8 19q1 3 4 2t1 -6q-4 -9 -6 -15q7 4 12 8l2 1q2 1 4 -1
t4 -1l4 2q5 5 9 6h2q3 2 4 0q3 -2 5 -2t5.5 2t4.5 0t-1 -4l-1 -1q-10 -5 -14 -9q2 -1 4 0t3 2l9 6l8 6q2 2 4 1t1 -3t-1 -3l8 4q3 1 2 4l-8 27q-3 -4 -5 -4t-1 2q1 6 -6 15l-3 4q-17 30 -46 70q-9 15 -31 44q-4 7 -13 22t-13 22q-23 33 -58 50q-8 4 -19 6q-6 1 -20 2h-4
l-5 -1q-7 -1 -11 0l-6 1q-10 1 -15 -3q0 -1 -3 0h-4q-3 0 -12 4v0l5 -7q3 -5 6 -7q12 -17 20 -25zM201 707v-1v1q1 -2 1.5 -1.5t-1.5 1.5l7 13q2 6 5.5 4t0.5 -8.5t-6 -19.5l6 12q0 1 1.5 1.5t3 -0.5t0 -3.5t-2 -6.5t-1.5 -6q-3 -5 -2.5 -6.5t6.5 -4.5q1 14 7 23q2 3 4 2
t1 -4q-3 -8 -3 -11l-1 -6q-2 -7 -1 -11l2 4v4q1 7 4.5 6t1.5 -7l-2 -8q0 -2 0.5 -3t3.5 -3q0 4 3 9.5t4 8.5l1 2q0 3 2 1q5 -2 3 -6v0q-5 -10 -6 -17v0q-2 -4 -2 -7t4 -6l1 -3l1 2q1 2 1.5 6t2 6.5t4 1.5t2.5 -3v-2q-1 -2 -2 -6t-2 -6q-2 -5 1 -10q1 2 2 5q1 7 3 10v0
q2 5 5.5 3t1.5 -5.5t-3 -10t-2 -9.5q-3 -6 4 -9l4 14q1 3 3.5 3t3.5 -3v-2q-1 -2 -2 -6t-2 -6q-5 -12 4 -18q1 3 2.5 8.5t3 8t4.5 1t2 -4.5q-3 -7 -3 -11q-2 -7 -2 -12t3 -10l2 -1l1 5q1 10 4 14v2q0 2 2 3q6 0 3 -6l-1 -6q-1 -5 -1 -7t-1 -6q-2 -8 2 -12q-1 -2 3 -3v0
q1 0 0 2l-1 1q-1 15 3 24q2 3 3.5 4t4 -0.5t0.5 -4.5l-1 -2q-7 -14 -2 -30v0q3 7 4.5 12t4 3.5t2.5 -2.5v-2q-1 -2 -1 -4.5t-1 -3.5l-2 -6q-2 -6 -2 -10t2 -9v0q0 -1 1 -2l1 2l3 19q2 5 5.5 5t2.5 -2.5t0 -2.5q2 -4 -2 -13l-1 -4q-1 -8 1 -12l3 5q-1 2 -0.5 3t1.5 0v0
q3 -1 4 -3.5t0 -5.5l-1 -4q-3 -11 0 -18l-1 -2l1 2h-2q3 2 3 5v1q1 10 5 14v1q1 4 3.5 2.5t2.5 -4.5l-2 -24q-1 -9 2 -12q2 1 1 4v2q1 3 2.5 2.5t1.5 -2.5l1 -2l-2 -17q-2 -9 6 -16q0 3 -1 9t-0.5 10.5t4.5 8.5v1q1 3 4.5 1.5t1.5 -6.5v0q-4 -5 -3 -17v-2q2 -12 0 -18
q-2 -3 2 -5q2 5 3 15l1 4q0 3 2 3v0q3 -1 3.5 -3.5t1 -7.5t0.5 -7q-5 -11 1 -23q1 0 -0.5 -3t2.5 -5q7 15 9 23q3 5 5.5 4.5t2 -3t-0.5 -3.5q0 -5 -2.5 -13t-2.5 -12q0 -7 3 -13l-2 -3q0 -2 -2.5 -0.5t-6 4.5t-4.5 4q-10 6 -14 18q-6 20 -19 42q-7 11 -18 35l-12 23
q-3 5 -8 17q-8 17 -14 25q-5 5 -11 17l-4 6q-5 8 -14 25q-16 28 -26 40q-5 6 -7 7q-14 11 -18 19q-7 12 -26 36l-7 9q-5 8 -10 13q-4 3 -10 6q-24 17 -57 25q-14 4 -21 4q-12 1 -22 -4l-15 -6q-8 -3 -10.5 -7t-2.5 -13q1 1 2.5 3.5t2.5 3.5q0 2 1.5 3t2 -1t-0.5 -5v0
q-5 -6 -12 -21q-3 -7 1 -23v0q2 5 3 12v2q0 10 5 16.5t14 11.5l1 1q2 1 4.5 -2t-2 -5t-6.5 -10l-3 -8l-1 -6q-6 -22 7 -36l1 -1q0 -1 1 0l-1 2q-3 12 0 26l1 3q3 16 10 20l1 1q3 1 4.5 -1.5t-1.5 -3.5q-15 -20 -6 -47q0 -4 -0.5 -4.5t-4.5 -0.5l-1 1q2 -2 4.5 -5t4.5 -4v3
q0 4 1 6q0 9 1 13q1 7 6 10v0q2 6 4.5 4t0.5 -5l-1 -3q-7 -14 -4 -32q4 9 9 28v0q2 4 4.5 3t0.5 -6l-7 -28q-1 -6 0 -9.5t6 -6.5q-2 12 2 32l1 8q1 6 9 9l2 2q4 1 5.5 -2t-2.5 -4l-1 -1q-4 -2 -4 -5q-6 -17 -6 -29q0 -16 8 -31l3 6q3 19 23 33h1q3 1 5 0q1 -3 -2 -4
q-1 -2 -4 -4l-3 -2q-13 -11 -15 -29l-3 -14q-1 -3 -0.5 -5t3.5 -5l2 3q1 8 9 24q2 4 5 2.5t1 -5.5l-4 -9q-4 -8 -5 -13q-2 -7 -1 -14l1 3q1 8 6 16q3 4 11 12l8 9q1 1 2.5 2t3 -0.5t-0.5 -4.5l-1 -1q-4 -8 -12.5 -15t-10.5 -18q-1 -7 -1 -22v-4q2 2 3 7l1 5q2 6 8 18l4 8
q3 6 7 4t1 -6l-1 -1q-7 -9 -11 -21q-3 -8 -6 -24v0q-2 -4 0 -8q2 5 3 15q2 19 18 38l2 2q3 3 5.5 0.5t-1.5 -6.5l-1 -2q-13 -15 -17 -35v-6q0 -5 -1 -8.5t-6 -5.5l1 -2q4 -9 7 -14l2 3q-1 8 2 17q2 6 7 16l3 7q2 4 7 5q0 2 1.5 2t2.5 -1.5t0 -4.5v0q-4 -3 -7 -10
q-10 -22 -12 -34v-3q0 -5 1 -8q4 -7 16 -20.5t16 -20.5l2 -3q2 -5 5 -6v0q1 10 1 14q-2 13 5 28v0q1 2 2 2.5t3 -0.5t1.5 -3t0.5 -3q-4 -11 -5 -31v-3q1 -8 -4 -10q-2 0 -1 -1v0q12 -17 22 -22q-4 19 7 41q2 5 5 3.5t1 -6.5l-4 -8q-6 -14 -2 -35q0 -3 6 -7.5t7.5 -6
t2.5 -3.5l-1 -1h2l1 2q-5 20 4 39l1 3q1 5 4 3t0 -9v0q-7 -22 -3 -40q1 0 0 -2.5t1 -4.5q16 -23 31 -30q5 -2 7 2q5 8 20 22v0q3 4 11 9l4 3q4 1 5.5 -1t-0.5 -3l-2 -1q-5 -2 -12 -10q8 -2 12.5 2t12.5 9l8 4l2 1q3 2 4 0l1 -2h2l2 1q3 2 5 1q3 1 4 -1.5t-3 -4.5v0
q-4 1 -8 -3l-4 -3q-2 -2 0 -4h1q5 -4 6 -1v0q2 4 4 5l3 3q4 5 7.5 6.5t6.5 -2.5v0q2 -4 0 -5q-7 1 -13 -7q-3 -4 -5 -6q8 -4 16 -11q2 -3 5 -3l1 -1q7 0 9.5 0.5t8.5 7.5q-3 1 -6 -2l-4 -3q-2 -1 -2 0q-3 3 2 4q7 5 4 11l2 3q3 1 5.5 5.5t3.5 5.5v0q9 10 14 14l2 1q4 1 6 -1
t1.5 -3t-2.5 -2l-2 -1q-4 2 -11 -12l3 1q6 1 7 4q4 9 13 15l2 2q3 3 5.5 3.5t5.5 -2.5h1q2 1 2.5 1.5l2.5 2.5t3 2l2 1q2 2 4 0t0 -4v-2q-2 1 -3 -2q1 -2 2 1l9 4q4 2 4 0q3 -3 -4 -5v0q-8 -5 -14 -11v0q4 -2 5.5 -2t3.5 2l21 15l2 1q3 2 4 0q3 -3 -4 -5q-11 -5 -18 -13v0
q3 -1 4 0q4 2 10 7t10 6l1 2q-1 2 -2 7q-2 8 -5 12q-9 14 -29 38t-28 38l-9 12q-14 18 -17.5 27.5t-7.5 13.5q-8 9 -18 29q-5 11 -18 32l-2 5q-16 24 -37 52q-25 33 -51 42q-13 5 -42 8l-15 1q-6 -1 -8.5 -4t-0.5 -13q-1 -3 4 -8zM527 318q-1 2 -3.5 7.5t-5.5 7.5l-35 39
q-7 8 -12 12q-7 6 -15 8l-6 1q-16 3 -23 1q-4 -1 -10 -4q-10 -6 -16 -6v0q10 -12 12 -17q3 -9 15 -25q8 -11 12 -17q2 -5 10 -9q2 -1 3.5 1.5t2.5 3.5q11 9 23 10.5t27 -4.5l4 -2q10 -6 17 -7zM516 392q3 -1 7 -4l7 -5q10 -8 23 -28l6 -10q2 -4 5 -2v0q18 9 27 11q16 5 32 2
l-3 3q-3 2 -4 4q-3 4 -9 13q-11 16 -19 23q-11 9 -26.5 11t-28.5 -3q-4 -2 -10 -9q-4 -4 -7 -6zM725 363q-2 5 -7 11v0q-10 12 -22 24q-7 7 -23 15q-21 10 -39 0q-6 -4 -6.5 -10.5t5.5 -12.5q23 -19 31 -30q5 -7 13 -3q13 10 23 12q12 3 25 -6zM827 355l-2 2l-5 5
q-8 7 -11 14v0q-3 7 -5 11q-5 6 -12 8q-3 2 -4 4q-9 9 -23 11.5t-24 -3.5l-1 -1q-1 -1 0 -2v-1q0 -2 1 0v0q2 5 2 -1q0 -7 3 -10q3 -5 12 -14l6 -6q6 -6 11.5 -3t12.5 0q18 -9 39 -14zM409 296q-16 6 -39 1q-10 0 -14 -10q-3 -6 -1.5 -9t8.5 -5q14 -4 25 -0.5t23 11.5
q6 4 5.5 6t-7.5 6zM570 334q4 -9 13.5 -9.5t24.5 -0.5v0q13 0 22 14q2 3 1 4t-3 2q-11 6 -22 4q-8 -1 -21 -6l-5 -2q-2 -1 -4.5 -3.5t-5.5 -2.5zM522 308q-7 4 -17 9q-23 11 -41 -3q-2 0 -3 -1.5t1 -4.5q2 -5 7 -5q22 -2 53 5zM684 352q6 -5 16.5 -4.5t17.5 5.5q3 2 -1 7
q-8 4 -19 1.5t-14 -9.5zM594 429q-3 -2 -7 -6l-8 -6l6 -4q4 -3 5 -5q7 -6 7.5 1t-3.5 20zM809 350q-13 6 -25 6h-2q-3 0 -3 -1.5t1 -3.5t2 -3q7 -3 10.5 -1t16.5 3zM473 396q5 -4 8 -3t6 4t4.5 4t-0.5 5v0q0 2 -1.5 2t-3 -1.5t-6 -5.5t-7.5 -5zM603 398q3 -6 5.5 -6.5t7 1
t5.5 1.5q-3 4 -11 3q-5 0 -7 1zM672 428q2 -1 4 -3t3 0t3 5l3 4q1 1 0.5 2t-2 0.5t-1.5 -1.5q-4 -3 -10 -7zM681 421q3 -1 5.5 -2.5t5.5 4.5v0q1 3 -2 4.5t-5 -1.5v0q1 -2 -2 -4zM582 428q-2 -1 -6 -5l-6 -5h1l4 3q6 4 7 7zM325 390q5 0 7.5 2t4.5 7q-5 -5 -12 -9zM340 401
v-1v1l-1 -2l1 2q0 -2 -0.5 -1.5t0.5 1.5zM566 626v0v0v-1v1v0v0zM73 658l-1 -1l1 1q-2 -1 -1.5 -1.5t1.5 1.5l-1 -2l1 2l-1 -2zM186 459v0v0q0 1 -0.5 0.5t0.5 -0.5h-1h1zM590 436q0 -1 1 -5q3 -9 2 -14q-1 -8 -7 -2l-12 9q4 2 9 7zM774 434q2 2 6 4.5t6 4.5l2 -4
q3 -3 3 -4.5t-1.5 -3.5t-0.5 -3v0q3 0 3.5 -1.5t-2.5 -3.5t-4 2q-5 6 -12 9h1h-1zM467 396q3 1 8 5t6.5 5.5t3 1.5t1.5 -2l1 -1q1 -2 -1 -3.5t-4.5 -4.5t-5.5 -4t-9 3zM598 405q2 -1 6.5 -0.5t7 0t4.5 -3.5q-2 0 -6 -1.5t-7 -1t-5 6.5zM668 440q2 1 5 4l5 4q0 1 1.5 1
t2.5 -1t0.5 -2t-1.5 -2l-4 -4l-2 -2q-1 -4 -5 0zM671 449q-1 -2 -3 -5l-2 -2q-1 -3 -3 -3t-6 2v0l2 2q6 6 12 6v0v0zM677 433l2 2l3 1q1 1 2 2.5t3.5 -0.5t0.5 -5v0q-2 -4 -6 -4q-1 2 -5 4zM578 435q-2 -4 -7 -8l-4 -3h-2q6 7 13 11zM319 382q8 3 13 8v0q-3 -4 -5 -6.5
t-8 -1.5zM441 412q-3 -6 -10 -8l3 3q4 5 7 5zM302 569q-1 -1 0 -2t0 -2l-1 1l-2 2h2zM441 412q0 1 1 2l1 1v-2zM447 416l-1 -1t-1 1l1 1l1 -1v1v-1zM335 393q-1 -1 -0.5 -1.5t0.5 1.5l-1 -2l1 2l-1 -1zM214 703v0v0h-2h2l-1 1zM256 648l-1 -1v0q0 1 1 1v1v-1zM317 537l-1 -1
q-2 -1 -1.5 0t2.5 1h-1h1zM670 450v0v1v-1q1 1 1 0t-1 0v0v0zM563 656v-1h-1l1 1h-1h1zM291 584q1 -1 1 -2l-1 2q1 -2 0.5 -1.5t-0.5 1.5v-1v1zM775 431q0 1 -1 1l1 -1l-1 2l1 -2q-1 2 0 1.5t0 -1.5zM81 646v-2v2v-2v2q0 -2 -1 -1.5t1 1.5l-1 -1zM184 445h-1h1q-1 0 -1 1
t1 -1v1v-1zM639 545v-2q-2 0 -2 0.5t2 1.5l-2 -1zM228 398v0v0h-1h1l-1 1zM644 441v0v0l-1 1zM245 401q1 4 4.5 12t4.5 12l1 2q1 3 3.5 1.5t1.5 -4t-2 -6.5t-2 -6q-5 -12 -3 -29q3 -7 -0.5 -7t-3.5 3l-1 5q-2 12 -8 15q-2 1 -3 6q-3 7 2 18.5t11 15.5h2q2 1 4 -0.5t0 -4.5
q-11 -14 -11 -33zM200 488v0q6 13 11 15l2 1q4 2 5.5 0t-0.5 -5l-1 -2q-15 -20 -16 -50q1 -3 0.5 -5t-3 -1.5t-4 3t-0.5 4.5v5q1 24 6 35zM173 507q4 9 14 18l6 6q1 2 4 0v0q1 0 2 -1.5t0 -3.5t-3.5 -5.5t-3.5 -5.5q-15 -18 -14 -42v-2q0 -1 -1 -1q-4 -1 -5 3q-4 4 -1 11
q-1 7 1 18zM183 561q2 -2 1.5 -3.5t-2.5 -3.5q-8 -9 -19 -32v0q-3 -6 -6 -20v-1q0 -3 -2.5 -2.5t-3 2t0.5 2.5q3 37 26 57q1 1 2.5 1.5t2.5 -0.5zM169 521q0 1 1 3q2 6 6 8l2 1q1 1 2.5 -0.5t-0.5 -4.5q-13 -21 -15 -45v-1q0 -3 -3.5 -2t-2.5 2q-2 10 1 17q2 4 4.5 11
t4.5 11zM290 391q-1 -1 -4 -6q-3 -6 -6 -7l-2 -1q-4 -3 -4.5 -6t-2 -3t-2.5 1.5t0 2.5l4 18l5 11q2 0 2.5 -1t0.5 -3t1.5 -2t2.5 2v2q1 3 4 2q6 -6 1 -10zM226 457q1 0 2.5 3.5t2.5 4.5l2 1q2 1 3 -0.5t0 -4.5q-14 -20 -12 -37l-1 -3q-2 -1 -2.5 0.5t-0.5 2.5q-2 6 0 20l1 2
zM277 413q-1 -3 -4 -8q-7 -12 -7 -21q0 -1 -3 -2v0q-3 2 -2 3q-4 14 4 23q2 4 8 9q1 1 3 2t4.5 -0.5t0.5 -4.5l-1 -1q-2 1 -3 0v0zM360 374q-2 0 -2.5 1.5t0.5 2.5l15 15q0 2 2.5 0.5t1.5 -4.5q-9 -10 -14 -13q-2 -3 -3 -2v0zM478 559q1 -7 -3.5 -18.5t-14.5 -32.5
q-2 -5 -5 -3.5t-2 3.5t0 3q2 7 7 19.5t7.5 18.5t10.5 10zM467 489q2 4 5 12.5t5 13.5v0q4 7 9 10q1 1 2.5 1.5t3 0t-0.5 -3.5q-5 -6 -9 -14q-2 -5 -5 -15v-2q-3 -6 -5.5 -6.5t-4.5 -0.5q-5 1 0 4zM438 579q-1 -4 -4 -13t-4 -13v-1q-1 -4 -3.5 -3.5t-2 2.5t-0.5 3q1 11 5 22
q3 7 9 20v0q2 5 4.5 2.5t2.5 -3.5t-1 -4zM504 469q-2 -3 -5 -9l-4 -9q-2 -5 -5 -3.5t-1 4.5l1 1q7 25 16 34v0q3 6 5.5 4t0.5 -6zM491 468q-3 -4 -6 -2q-1 0 -1 2.5v3.5l1 4q6 22 8 33q1 2 2 3t3 -0.5t1.5 -3.5t-0.5 -3q-1 -11 -7 -33zM454 532q-2 -5 -4 -4v0q-3 2 -2 3
q2 19 10 36q1 2 3 3t4 0t-1 -4v-1zM388 653q-6 -14 -6 -21v-2q0 -3 -2 -3t-2.5 1.5t0.5 3.5q0 16 12 33q0 2 1.5 2t3 -0.5t0.5 -3.5v0q-4 -4 -7 -10zM444 542q-1 -3 -3 -2.5t-3 2.5v0q3 25 8 35q1 3 3.5 2t0 -6.5t-4.5 -19.5q1 -8 -1 -11zM412 607q-4 -9 -9 -14
q-1 -3 -3 -2.5t-0.5 4.5t5.5 13t5 13q1 1 2 1.5t2 0.5t1.5 -1.5t0.5 -3t-2 -5.5t-2 -6zM397 641q0 1 2 2l2 2l2 1q1 -1 1 -2l-11 -33q0 -2 -3 -2q-3 1 -3 3l2 7q1 5 1 7l3 6q4 6 4 9zM351 664q2 8 9 22v0q2 5 4.5 5.5t4 -0.5t0.5 -4v0q-8 -17 -10 -25q-3 -3 -6 1zM518 451
q-5 -5 -11 -18v0q-2 -4 -4 -3t-2 2t1 4l10 20q2 6 5.5 3.5t1.5 -6.5zM368 671q3 7 7 11l2 1q1 1 2.5 -0.5t-0.5 -4.5q-5 -7 -7 -10q-3 -7 -2 -14q-1 -3 -2.5 -2.5t-2.5 1.5t0 2q-2 5 3 16v0zM424 592q-1 -2 -3 -5l-2 -6q-2 -3 -3.5 -2t-0.5 4v0q1 7 9 22v0q1 3 2.5 2.5
t1.5 -2.5l1 -2q0 -3 -3 -8zM499 623q2 4 6 14t6.5 15t5.5 3.5t1 -6.5l-3 -8q-4 -11 -7.5 -16t-8.5 -2zM521 623q-1 -1 -2 -5l-3 -6q-1 -3 -5 -1q-1 1 -1 2l-1 3q2 4 5 12t5 12t5 2q1 0 1.5 -2.5t-0.5 -3.5q0 -5 -4 -13zM611 467q0 -1 -1 -2l-1 -3q-2 -4 -4.5 -2t-0.5 5l1 1
q1 4 3 10l3 8q3 6 5.5 4.5t-0.5 -7.5v0q-4 -9 -5 -14zM498 666v0q-4 -9 -8 -12v0q-1 -3 -5 -2q-1 1 -1 3l-1 2q2 3 3.5 8.5t3.5 9.5t5 2.5t1 -7.5q2 -1 2 -3v-1zM601 434v2l10 21q2 3 3.5 2.5t2 -2t0.5 -3.5q-7 -13 -12 -20q0 -1 -1.5 -0.5t-2.5 0.5zM565 520q1 5 3 14l3 13
q1 3 3 3t2.5 -1.5t0.5 -2.5q-4 -17 -8 -24q1 -4 -4 -2v0zM561 545v0q-1 -3 -2.5 -4t-2.5 -1l-2 1l7 24q0 2 2 3t4 0t0 -4l-1 -1l-1 -3q-1 -10 -4 -15zM589 527q4 -2 6 -7l-2 -7q-3 -10 -3 -16l-1 -2q0 -2 -2 -2t-2.5 1.5t-0.5 3.5q-1 7 3 22zM579 541q7 -3 5 -8l-4 -18
q-2 -3 -4 -2t-1.5 2t0.5 2zM713 427l-1 -1q0 -4 -3 -2.5t-1 6.5v0q1 11 10 31v0q2 4 5 2.5t1 -4.5l-1 -1q-5 -20 -10 -31zM696 468q-1 -1 -2.5 -5t-5.5 -2.5t0 8.5l1 2q3 6 6 20l2 5q0 1 1.5 1.5t3 -0.5t0.5 -4l-1 -5q-2 -13 -5 -20zM618 571q0 5 4 16q3 7 4 10q0 1 1 1h1
q4 -2 3 -4v0q-4 -16 -9 -23q-1 -2 -4 0z" />
    <glyph glyph-name="hover" unicode="&#xe012;" 
d="M999 407q-3 13 -17 16q-31 10 -95 23q-41 8 -61 13q-4 -1 -10 -1t-9 -1t-4 -4q-2 -9 15 -15q28 -15 66 -25q22 -7 69 -16l31 -7q11 -3 14.5 2t0.5 15zM945 642q11 6 4 21q-6 9 -15 11t-19 -5q-19 -9 -56 -31q-51 -29 -79 -42q-11 -5 -8.5 -12.5t14.5 -7.5h4q27 8 60 22
q19 8 57 26zM173 425q0 7 -5.5 9t-11.5 0q-27 -1 -58 -12q-19 -6 -55 -21l-12 -5q-10 -4 -12.5 -12.5t2.5 -18.5q8 -17 29 -6l48 23q14 8 46 16l14 4q15 8 15 23zM165 571q12 -4 21 -2l4 2q6 2 6 5q1 5 -1 7t-6 5h-1q-39 23 -89 37q-38 10 -99 19q11 -19 25 -23
q61 -25 140 -50zM206 352q-37 -17 -64 -58q-5 -10 -1 -13t11 1l2 2q15 7 29 20q9 8 25 26l7 8q1 1 2 4t2 4q-2 6 -4.5 7t-8.5 -1zM786 373q17 -20 43 -38q19 -14 49 -31q2 -1 4 -0.5t3 3.5t-0.5 5.5t-4.5 4.5q-33 40 -94 56zM847 532l-2 -2q-6 -4 -4.5 -9t6.5 -4h2
q15 1 44 5q26 3 39 4q4 0 6.5 1.5t2.5 4t-4 6.5h-1q-12 8 -46 5.5t-43 -11.5zM784 659q29 29 44 42q4 4 4 8.5t-0.5 7t-3.5 4.5t-5 2t-5 -4q-34 -33 -48 -50q-4 -3 -4.5 -7t3 -7t12.5 2zM85 517q-1 0 -4 1q-9 2 -10.5 -3t1.5 -7.5t9 -4.5v0q12 -3 35 -8t34 -7h3
q6 -1 7.5 3.5t-0.5 6.5t-6 4l-2 1q-12 6 -31 10q-11 2 -34 4h-2zM200 640q-3 4 -10 12q-14 16 -22 24q-13 12 -26 18q22 -40 58 -54z" />
    <glyph glyph-name="money" unicode="&#xe013;" 
d="M166 112q-5 5 -13.5 5t-14 -5.5t-5.5 -13.5t5.5 -14t14 -6t14 6t5.5 14t-6 14zM918 643q-6 6 -14 6t-13.5 -5.5t-5.5 -14t5.5 -14t13.5 -5.5t14 5.5t6 14t-6 13.5zM995 995q-5 6 -14 6h-481q-8 0 -13.5 -5.5t-5.5 -14.5v-55l-185 -50q-8 -2 -12 -9t-2 -15l96 -359
l-83 -83q-8 12 -21 19t-28 7h-187q-25 0 -42 -17t-17 -42v-318q0 -25 17 -42t42 -17h187q21 0 36.5 12.5t20.5 32.5l24 -21q27 -24 64 -24h590q9 0 14.5 5.5t5.5 14.5v961q0 9 -6 14zM266 59q0 -8 -6 -14t-14 -6h-187q-8 0 -14 6t-6 14v318q0 8 6 14t14 6h74v-225
q0 -8 5.5 -14t14 -6t14 6t5.5 14v225h74q8 0 14 -6t6 -14v-318zM325 843l156 42v-72l-13 -4q-8 -2 -12 -9t-2 -15q6 -21 -5 -40t-32 -24q-8 -2 -12 -9t-2 -15l76 -283h-39l-20 80q-1 3 -4 6zM481 723v-165l-36 132q23 12 36 33zM762 39h-371v0q-22 0 -39 15l-47 41v270
l85 86l16 -61q1 -6 6.5 -10.5t12.5 -4.5h384q11 0 19.5 -8t8.5 -19t-8.5 -19t-19.5 -8h-197q-8 0 -13.5 -6t-5.5 -14t5.5 -13.5t13.5 -5.5h258q12 0 20 -8.5t8 -19.5t-8 -19t-20 -8h-258q-8 0 -13.5 -6t-5.5 -14t5.5 -13.5t13.5 -5.5h217q11 0 19 -8t8 -19.5t-8 -19.5
t-19 -8h-217q-8 0 -13.5 -6t-5.5 -14t5.5 -13.5t13.5 -5.5h150q11 0 19 -8t8 -19.5t-8 -19.5t-19 -8zM962 39v0h-140q6 13 6 27.5t-6 27.5h7q27 0 46.5 19.5t19.5 46.5q0 16 -7 30q21 6 35 23.5t14 40t-13 40.5v248q0 8 -6 13.5t-14 5.5t-13.5 -5.5t-5.5 -13.5v-223
q-8 2 -15 2v0q6 13 6 27q0 27 -19.5 46.5t-47.5 19.5h-31q25 11 41 34.5t16 51.5q0 39 -27.5 66.5t-66.5 27.5t-66.5 -27.5t-27.5 -65.5q0 -29 16 -52.5t41 -34.5h-107v372q27 6 46 25t24 45h147q6 -26 25 -45t46 -25v-61q0 -8 5.5 -13.5t13.5 -5.5t14 5.5t6 13.5v79
q0 8 -6 13.5t-14 5.5q-22 0 -37.5 15.5t-15.5 37.5q0 8 -5.5 13.5t-13.5 5.5h-182q-8 0 -14 -5.5t-6 -13.5q0 -22 -15 -37.5t-37 -15.5q-8 0 -14 -5.5t-6 -13.5v-390h-38v548h442v-923zM741 446q-23 0 -38.5 16t-15.5 38.5t15.5 38.5t38 16t38.5 -16t16 -38.5t-16 -38.5
t-38 -16z" />
    <glyph glyph-name="mug-hot" unicode="&#xe014;" 
d="M813 625h-750q-26 0 -44.5 -18t-18.5 -44v-375q0 -51 25.5 -94t68.5 -68.5t94 -25.5h375q51 0 94 25.5t68.5 68.5t25.5 94v62h62q51 0 94 25.5t68.5 68.5t25.5 94t-25.5 94t-68.5 68t-94 25zM688 188q0 -34 -17 -63t-45.5 -45.5t-62.5 -16.5h-375q-34 0 -63 16.5
t-45.5 45.5t-16.5 63v375h625v-375zM813 313h-62v250h62q34 0 63 -17t45.5 -45.5t16.5 -62.5t-16.5 -62.5t-45.5 -45.5t-63 -17zM374 848q58 -58 63 -144q0 -6 4.5 -10.5t11.5 -4.5h31q7 0 11.5 4.5t4.5 11.5q-6 111 -82 187q-38 39 -43 95q0 6 -4.5 10t-10.5 4h-32
q-6 0 -10.5 -5t-4.5 -12q5 -80 61 -136zM187 848q58 -58 63 -144q0 -6 4.5 -10.5t11.5 -4.5h31q7 0 11.5 4.5t4.5 11.5q-6 111 -82 187q-38 39 -42 95q-1 6 -5.5 10t-10.5 4h-31q-7 0 -11.5 -5t-4.5 -12q6 -81 61 -136z" />
    <glyph glyph-name="multimedia" unicode="&#xe015;" 
d="M860 520l-692 477q-11 8 -24 1.5t-13 -21.5v-953q0 -15 13 -21q5 -3 11.5 -3t12.5 4l692 477q10 7 10 19.5t-10 19.5z" />
    <glyph glyph-name="order" unicode="&#xe016;" 
d="M122 837v0q8 0 14 5.5t6 13.5t-6 14t-14 6t-13.5 -6t-5.5 -14t5.5 -13.5t13.5 -5.5zM122 837zM211 837v0q8 0 14 5.5t6 13.5t-6 14t-14 6t-14 -6t-6 -14t6 -13.5t14 -5.5zM211 837zM300 837v0q8 0 14 5.5t6 13.5t-6 14t-14 6t-14 -6t-6 -14t6 -13.5t14 -5.5zM300 837z
M453 837h319q8 0 14 5.5t6 13.5t-6 14t-14 6h-319q-8 0 -13.5 -6t-5.5 -14t5.5 -13.5t13.5 -5.5zM453 837zM876 451q-8 0 -14 -5.5t-6 -14t6 -14t14 -5.5t13.5 5.5t5.5 13.5t-5.5 14t-13.5 6zM876 451zM981 156h-20q-4 67 -36.5 124t-85.5 95.5t-118 49.5v13q0 22 -15.5 37
t-37 15t-37 -15t-15.5 -37v-13q-50 -9 -94 -34.5t-76 -63.5h-187q-8 0 -14 -5.5t-6 -14t6 -14t14 -5.5h158q-13 -22 -22 -46h-336q-8 0 -14 6t-6 14v143l48 -48q6 -6 14 -6t14 6l58 59l18 -18q8 -8 19.5 -4.5t13.5 14.5l25 124h205q8 0 13.5 5.5t5.5 13.5v125q0 9 -5.5 14.5
t-13.5 5.5h-329q-8 0 -13.5 -5.5t-5.5 -14.5v-91l-49 -10q-12 -2 -15 -13.5t5 -19.5l17 -17l-25 -26v252h817v-241q0 -8 6 -14t14 -6t13.5 6t5.5 14v393q0 25 -17 42t-41 17h-778q-25 0 -42 -17t-17 -42v-641q0 -24 17 -41.5t42 -17.5h324q-5 -23 -7 -47h-217
q-8 0 -13.5 -5.5t-5.5 -13.5t5.5 -14t13.5 -6h177v-5q0 -30 21.5 -51.5t51.5 -21.5h519q30 0 51.5 21.5t21.5 51.5v25q0 8 -5.5 13.5t-14.5 5.5zM145 657h289v-86h-177l3 17q2 11 -5.5 18.5t-17.5 5.5l-92 -19v64zM106 511q6 6 6 14t-6 14l-6 5l116 23l-23 -115l-6 5
q-5 6 -13.5 6t-13.5 -6l-59 -59l-54 54zM59 923h778q8 0 13.5 -6t5.5 -14v-113h-817v113q0 8 6 14t14 6zM655 438q0 5 4 9t9.5 4t9.5 -4t4 -9v-8h-13h-14v8zM669 391q65 0 121.5 -31t91.5 -85t40 -119h-507q5 65 40 119t91.5 85t122.5 31zM962 112q0 -14 -10 -24t-24 -10
h-519q-14 0 -24 10t-10 24v5h587v-5zM962 112zM649 627v-60q0 -8 6 -14t14 -6t14 6t6 14v60q0 8 -6 13.5t-14 5.5t-14 -5.5t-6 -13.5zM649 627zM772 592l-42 -42q-6 -6 -6 -14t6 -13.5t14 -5.5t14 5l42 43q6 5 6 13.5t-6 14t-14 5.5t-14 -6zM772 592zM538 592
q-6 -5 -6 -13.5t6 -13.5l42 -43q6 -5 14 -5t14 5.5t6 13.5t-6 14l-42 42q-6 6 -14 6t-14 -6zM538 592zM81 156q-8 0 -13.5 -5.5t-5.5 -13.5t5.5 -14t13.5 -6t14 6t6 14t-6 13.5t-14 5.5zM81 156z" />
    <glyph glyph-name="phone-plus" unicode="&#xe017;" 
d="M965 953l-204 47q-16 4 -31.5 -4t-21.5 -23l-94 -219q-6 -15 -2.5 -30t15.5 -25l119 -97q-53 -113 -143 -203t-204 -143l-97 118q-10 12 -25 16t-30 -3l-218 -93q-16 -7 -24 -22.5t-4 -31.5l47 -204q4 -16 16.5 -26t29.5 -10q184 0 353 71q163 69 288.5 194.5
t194.5 288.5q71 168 71 353q0 17 -10 29.5t-26 16.5zM31 719h125v-125q0 -13 9.5 -22t22.5 -9h62q13 0 22.5 9t9.5 22v125h125q13 0 22 9.5t9 22.5v62q0 13 -9 22.5t-22 9.5h-125v125q0 13 -9.5 22t-22.5 9h-62q-13 0 -22.5 -9t-9.5 -22v-125h-125q-13 0 -22 -9.5t-9 -22.5
v-62q0 -13 9 -22.5t22 -9.5z" />
    <glyph glyph-name="pie" unicode="&#xe018;" horiz-adv-x="1126" 
d="M1033 555q-36 95 -107.5 168t-165.5 113t-197 40t-197 -40t-165 -113t-108 -168q-38 -2 -61 -21q-18 -15 -26 -39q-6 -16 -6 -30q0 -37 26.5 -63.5t63.5 -26.5l15 2l63 -190q9 -28 32.5 -45t52.5 -17h620q29 0 52.5 17t32.5 45l63 190l15 -2q37 0 63.5 26.5t26.5 63.5
q0 14 -6 30q-8 24 -26 39q-23 19 -61 21zM899 206q-3 -8 -10 -13t-16 -5h-620q-8 0 -15.5 5t-10.5 13l-61 184q31 12 57 32l1 1q15 11 22 11q10 1 27 -12q28 -20 49 -30q39 -17 84 -17t83 17q22 10 50 30v1q15 11 22 11q10 1 27 -12q28 -20 49 -30q39 -17 84 -17t83 17
q22 10 50 30q16 12 24.5 12t24.5 -12q26 -20 57 -32zM1036 438q-32 0 -58 12q-16 6 -38 23q-38 28 -74 23q-23 -3 -49 -23q-23 -17 -38 -24q-26 -11 -58 -11t-58 11q-15 7 -38 24v0q-40 29 -77 22q-21 -3 -46 -22v0q-23 -17 -38 -24q-26 -11 -58 -11t-58 11q-15 7 -38 24
l-2 1q-23 17 -43 21q-39 8 -79 -22q-22 -17 -37 -23q-26 -12 -59 -12q-15 0 -23 13.5t0 27t23 13.5h2q10 0 18 2q13 4 33 14q46 135 148 213q74 57 172 80q53 12 100 12t100 -12q97 -22 172 -80q102 -78 148 -213q20 -11 32 -14q8 -2 19 -2h2q15 0 23 -13.5t0 -27t-23 -13.5
zM389 716q-11 6 -23.5 2t-18.5 -16l-31 -62q-6 -12 -1.5 -24.5t16.5 -18.5t24 -1t17 16l31 62q6 12 2 24t-16 18zM779 702q-6 12 -18.5 16t-24 -2t-15.5 -18t2 -24l31 -62q5 -11 17 -16t24.5 1t16.5 18.5t-2 24.5zM563 719q-13 0 -22 -9t-9 -22v-62q0 -13 9 -22.5t22 -9.5
t22 9.5t9 22.5v62q0 13 -9 22t-22 9z" />
    <glyph glyph-name="pizza-1" unicode="&#xe019;" 
d="M636 591q27 0 46.5 19.5t19.5 46.5t-19.5 46.5t-46.5 19.5t-46.5 -19.5t-19.5 -46.5t19.5 -46.5t46.5 -19.5zM617 676q8 8 19 8t19 -8t8 -19t-8 -19t-19 -8t-19 8t-8 19t8 19zM617 676zM607 446q24 0 41.5 17t17.5 42t-17.5 42t-42 17t-42 -17t-17.5 -42t17.5 -42
t42.5 -17zM592 519q6 6 14.5 6t14.5 -6t6 -14t-6 -14t-14.5 -6t-14.5 6t-6 14t6 14zM592 519zM477 579h27q16 0 27.5 11.5t11.5 27.5v27q0 16 -11.5 27t-27.5 11h-27q-16 0 -27 -11t-11 -27v-27q0 -16 11 -27.5t27 -11.5zM478 644h26v-26h-26v26zM478 644zM998 155v0
l-122 188q-6 9 -17 9h-161l105 393q5 18 0.5 35t-17.5 29.5t-30 17t-34 0.5l-463 -124q-18 -5 -32.5 -17.5t-22.5 -29.5t-8.5 -36t7.5 -36q61 -133 169 -232h-213v532h681v-395q0 -8 5.5 -14t13.5 -6t14 6t6 14v406l28 29q6 5 6 13v44q0 9 -6 14.5t-14 5.5h-787
q-9 0 -14.5 -5.5t-5.5 -14.5v-44q0 -8 6 -13l28 -29v-557l-117 -183v0q-3 -5 -3 -10v-125q0 -9 5.5 -14.5t14.5 -5.5h961q9 0 14.5 5.5t5.5 14.5v125q0 5 -3 10zM732 789q4 1 7 1q11 0 19 -8q11 -11 7 -27l-111 -416q-20 17 -46 17h-6q-16 0 -27 11t-11 27q0 32 -22.5 54.5
t-54.5 22.5q-16 0 -27 11t-11 26q0 32 -22.5 54.5t-54.5 22.5q-16 0 -27 11t-11 27q0 31 -22 53zM239 600q-9 20 0 40q6 13 19 20q16 0 26.5 -11t10.5 -26q0 -32 22.5 -54.5t54.5 -22.5q16 0 27 -11t11 -27q0 -31 22.5 -53.5t54.5 -22.5q16 0 27 -11.5t11 -26.5
q0 -32 22.5 -54.5t54.5 -22.5h6q13 0 22 -8.5t10 -20.5q-7 -18 -24 -25q-20 -10 -39 -1q-112 52 -199.5 139t-138.5 199zM125 962h749v-16l-23 -23h-703l-23 23v16zM80 203h2h272q8 0 13.5 6t5.5 14t-5.5 13.5t-13.5 5.5h-249l45 71h269q66 -51 141 -86q17 -8 36 -8t36.5 8
t29.5 22.5t17 33.5l8 30h162l96 -149h-890zM532 125q-5 -8 -13.5 -12.5t-18 -4.5t-18 4.5t-13.5 12.5h63zM962 39h-923v86h388q6 -25 26.5 -41t47 -16t47 16t26.5 41h388v-86zM962 39zM452 223q0 8 -6 13.5t-14 5.5t-13.5 -5.5t-5.5 -13.5t5.5 -14t13.5 -6t14 6t6 14z
M452 223zM859 430q-8 0 -13.5 -5.5t-5.5 -14t5.5 -14t13.5 -5.5t14 5.5t6 14t-6 14t-14 5.5zM859 430z" />
    <glyph glyph-name="pizza-2" unicode="&#xe01a;" horiz-adv-x="1126" 
d="M1023 805q-9 12 -23.5 12t-23.5 -9l-307 -307l307 -308q9 -9 23.5 -9t23.5 12q68 89 92 198q23 107 0 213q-24 109 -92 198zM902 356l-145 145l145 144q36 -68 36 -144.5t-36 -144.5zM994 264l-46 46q53 88 53 189.5t-53 191.5l46 46q46 -71 61.5 -153.5t0 -165.5
t-61.5 -154zM501 501l331 330q10 10 9.5 23.5t-10.5 22.5q-68 60 -153.5 92t-176.5 32q-122 0 -230 -56q-114 -59 -188 -169q-55 -81 -73.5 -178t0 -194.5t73.5 -179.5q74 -109 188 -168q108 -56 230 -56q91 0 176.5 32t153.5 92q10 9 10.5 22.5t-9.5 23.5zM516 626
q-13 0 -22 9t-9 22t9 22t22 9t22 -9t9 -22t-9 -22t-22 -9zM603 691q-11 30 -39 46.5t-60 12.5t-54.5 -26.5t-26.5 -54.5t12.5 -60t46.5 -39l-69 -69l259 -259q-80 -54 -171 -54q-49 0 -102 18q25 18 34.5 47t0 58t-34.5 47t-55.5 17.5t-55 -19t-33.5 -47.5q-32 41 -49 89
q-18 50 -18 103q0 84 42 157q42 71 113 113q73 42 158 42q91 0 171 -53zM375 282q0 -13 -9 -22.5t-22 -9.5t-22 9.5t-9 22t9 22t22 9.5t22 -9.5t9 -21.5zM501 63q-111 0 -206.5 51.5t-159.5 144.5q-48 72 -64.5 156.5t0 169.5t64.5 156q64 94 159.5 145.5t206.5 51.5
q71 0 138.5 -22t124.5 -65l-47 -46q-47 34 -101 52q-56 19 -116 19q-101 0 -189 -51q-85 -50 -135 -135q-51 -88 -51 -189.5t51 -189.5q50 -85 135 -135q88 -51 190 -51q59 0 115 19q54 18 102 52l46 -46q-57 -43 -124.5 -65t-138.5 -22z" />
    <glyph glyph-name="pizza" unicode="&#xe01b;" 
d="M147 465q8 0 13.5 6t5.5 14t-5.5 13.5t-13.5 5.5h-61q-8 0 -13.5 -5.5t-5.5 -13.5t5.5 -14t13.5 -6h61zM20 755h60q8 0 14 5.5t6 14t-6 14t-14 5.5h-60q-9 0 -14.5 -5.5t-5.5 -14t5.5 -14t14.5 -5.5zM754 722q-32 -3 -52 -28t-16.5 -56.5t27.5 -51.5q22 -17 49 -17h8
q32 4 52 28.5t16.5 56.5t-28.5 52t-56 16zM791 622q-10 -12 -25.5 -13.5t-27.5 8t-13.5 25t8 28t25.5 13.5l4 1q13 0 24 -9q12 -10 13.5 -25.5t-8.5 -27.5zM625 537q0 9 -6 14.5t-14 5.5t-13.5 -5.5t-5.5 -14.5v0q0 -8 5.5 -13.5t13.5 -5.5t14 5.5t6 13.5zM623 375
q-8 -3 -10.5 -11t1.5 -15v0q5 -11 17 -11q5 0 9 2q7 4 10 11.5t-1 15t-11.5 10t-14.5 -1.5zM696 515q-7 -3 -9.5 -11t0.5 -15v0q6 -11 18 -11q4 0 8 2q8 4 10.5 11.5t-1 15t-11.5 10t-15 -1.5zM603 692q8 0 14 6t6 14t-6 13.5t-14 5.5t-13.5 -5.5t-5.5 -13.5v0
q0 -9 5.5 -14.5t13.5 -5.5zM476 698q-25 -3 -41.5 -23t-13.5 -45.5t23 -41.5q17 -14 39 -14h6q26 3 42.5 23t13.5 45.5t-23 42t-46 13.5zM485 613q-9 -1 -16.5 5t-8.5 15.5t5 17t15 8.5h3q9 0 15.5 -6t7.5 -15t-5 -16.5t-16 -8.5zM319 311h-180q-8 0 -13.5 -5.5t-5.5 -13.5
t5.5 -14t13.5 -6h180q8 0 14 6t6 14t-6 13.5t-14 5.5zM278 215h-40q-9 0 -14.5 -6t-5.5 -14t5.5 -13.5t14.5 -5.5h40q8 0 14 5.5t6 13.5t-6 14t-14 6zM965 865q-89 52 -191 70q-8 2 -14.5 -3t-8 -13t3 -14.5t12.5 -7.5q95 -17 179 -66q11 -6 14.5 -19.5t-3 -25t-19.5 -15
t-25 3.5q-84 48 -178.5 60.5t-187.5 -12.5t-169 -82.5t-124 -141.5q-7 -12 -20 -15.5t-24.5 3.5t-15 20t3.5 25q64 110 169 180.5t232 87.5q8 1 13 7.5t3.5 14.5t-8 13t-14.5 4q-132 -18 -244 -91q-37 -25 -70 -54h-120q-8 0 -13.5 -5.5t-5.5 -14t5.5 -14t13.5 -5.5h81
q-25 -27 -47 -57h-115q-8 0 -13.5 -6t-5.5 -14t5.5 -14t13.5 -6h90l-4 -7q-14 -23 -9 -50h-135q-9 0 -14.5 -5.5t-5.5 -14t5.5 -14t14.5 -5.5h158q5 -5 12 -9q16 -10 36 -10q11 0 21 4l43 -43h-64q-8 0 -13.5 -5.5t-5.5 -13.5t5.5 -14t13.5 -6h104l58 -57h-347
q-8 0 -13.5 -6t-5.5 -14t5.5 -13.5t13.5 -5.5h387l58 -58h-88q-8 0 -13.5 -5.5t-5.5 -13.5t5.5 -14t13.5 -6h128l58 -57h-226q-9 0 -14.5 -6t-5.5 -14t5.5 -13.5t14.5 -5.5h266l117 -115q5 -6 13 -6q3 0 5 1q11 3 14 14l186 668q21 9 32 29q15 26 7.5 54.5t-33.5 43.5z
M481 371l-103 102q18 21 47 24.5t52.5 -15.5t26.5 -49q2 -18 -4 -34t-19 -28zM787 265q-17 5 -29.5 18.5t-13.5 31.5q-3 23 12 41.5t38 20.5q12 2 23 -2zM828 413q-19 5 -38 3q-39 -4 -64.5 -35t-20.5 -70q3 -30 23 -53t48 -30l-32 -116l-235 232q19 18 28 42.5t6 50.5
q-5 46 -41 75t-82 24q-42 -4 -70 -35l-70 68q5 5 8 10q60 104 164 163q101 58 218 58q119 1 223 -59q11 -6 24 -9zM685 906v0q9 0 14.5 6t5.5 14t-6 14t-14 6t-13.5 -6t-5.5 -14t5.5 -14t13.5 -6z" />
    <glyph glyph-name="salad" unicode="&#xe01c;" 
d="M969 438h10q22 44 22 92.5t-19.5 91t-54.5 72.5q-15 53 -49.5 94t-84 64.5t-105.5 23.5q-4 0 -13 -1l-8 -1q-26 57 -79.5 92t-118.5 35t-118 -35t-80 -92l-8 1q-8 1 -13 1q-68 0 -125.5 -33.5t-91 -91t-33.5 -125.5q0 -56 24 -105q22 -48 63 -83h-55q-14 0 -23.5 -10
t-8.5 -23q7 -74 40 -138t87.5 -111t122.5 -71v-22q0 -26 18.5 -44.5t44.5 -18.5h376q26 0 44 18.5t18 44.5v22q68 24 122 71t87 111q35 65 41 138q1 13 -8.5 23t-23.5 10zM938 532q0 -53 -32 -94h-248q-32 41 -32 94q0 42 21 78t57 57t78.5 21t78 -21t56.5 -57t21 -78z
M63 626q0 43 19 83q25 51 75 79q62 33 156 25q25 57 58 88q26 24 57 33q17 4 41 4t41 -4q31 -9 57 -33q34 -31 59 -88q63 6 107 -5q60 -16 100 -64q-25 7 -51 7q-59 0 -109.5 -29.5t-80 -80t-29.5 -109.5q0 -50 22 -94h-84v360q0 6 -5 10.5t-11 4.5h-31q-7 0 -11.5 -4.5
t-4.5 -10.5v-316l-217 217q-5 5 -11.5 5t-10.5 -5l-22 -22q-5 -4 -5 -10.5t5 -11.5l217 -217h-144q-51 0 -94 25.5t-68 68.5t-25 94zM731 144l-43 -15v-66h-375v66l-42 15q-78 27 -132.5 89t-70.5 142h865q-16 -79 -70 -141t-132 -90z" />
    <glyph glyph-name="scooter" unicode="&#xe01d;" 
d="M427 160q-8 0 -13.5 -5.5t-5.5 -14t5.5 -14t13.5 -5.5t14 5.5t6 14t-6 14t-14 5.5zM427 160zM817 489l-46 206q19 3 31 17q14 -9 31 -9h39q8 0 14 6t6 14v78q0 8 -6 14t-14 6h-39q-17 0 -32 -10q-15 17 -37 17h-115q-15 0 -27.5 -9t-17.5 -22h-47q-21 0 -36 -15t-15 -36
t15 -36t36 -15h101v-40q0 -8 5.5 -13.5t13.5 -5.5t14 5.5t6 13.5v40h34l49 -223l-93 -165q-7 -14 -20.5 -22t-29.5 -8h-231q-5 41 -28 74t-58.5 52t-77.5 19q-56 0 -101 -35v0q-26 -20 -42 -48.5t-20 -61.5h-40q1 70 36.5 128.5t94.5 92.5t128 34h139q8 0 14 -6t6 -14v-176
q0 -8 5.5 -13.5t13.5 -5.5h104q32 0 59.5 16t42.5 43t15 57v65q0 9 -6 14.5t-14 5.5v0q-8 0 -13.5 -5.5t-5.5 -14.5v-65q0 -20 -10 -38t-28.5 -28.5t-39.5 -10.5h-84v156q0 15 -7 28q13 8 21 21.5t8 29.5q0 24 -17 41.5t-42 17.5h-71q-10 0 -19 -4v172q0 24 -17.5 41.5
t-41.5 17.5h-126q-45 0 -84 -20.5t-65 -56t-33 -78.5q-1 -3 -1 -6v0q-1 -12 -1 -23v-102q0 -22 14.5 -38.5t35.5 -19.5l43 -44q-44 -41 -68.5 -97.5t-24.5 -118.5v-15q0 -8 5.5 -14t14.5 -6h109v-4q0 -42 28 -74h-137q-9 0 -14.5 -5.5t-5.5 -14t5.5 -14t14.5 -5.5h222
q31 0 57 15t41.5 41.5t15.5 56.5l-1 4h282q23 0 43.5 10.5t34.5 29.5h25q-9 -21 -9 -44q0 -42 28 -74h-254q-8 0 -13.5 -5.5t-5.5 -14t5.5 -14t13.5 -5.5h340q30 0 56 15t41.5 41.5t15.5 56.5q0 23 -9 44h32q9 0 14.5 5.5t5.5 13.5q0 51 -24.5 94.5t-67 69.5t-92.5 28z
M388 610h71q9 0 14.5 -5.5t5.5 -13.5t-5.5 -14t-14.5 -6h-71q-8 0 -13.5 6t-5.5 14t5.5 13.5t13.5 5.5zM39 693v2v1h214q8 0 14 6t6 14t-6 14t-14 6h-207q13 44 51.5 73t86.5 29h126q8 0 13.5 -6t5.5 -14v-227q0 -8 -5.5 -14t-13.5 -6h-251q-8 0 -14 6t-6 14v102zM106 532
h45q-14 -8 -28 -18zM317 234q0 -30 -21.5 -52t-52.5 -22h-3q-30 1 -51 22.5t-21 51.5v4h149v-4zM119 277q7 49 46 80v0q34 26 77 26q47 0 82 -30t42 -76h-247zM833 782h19v-40h-19q-8 0 -14 6t-6 14t6 14t14 6zM545 746q0 4 3.5 7.5t8.5 3.5h43v-13q0 -5 1 -10h-44
q-5 0 -8.5 3.5t-3.5 8.5zM677 734h-28q-4 0 -7 3t-3 7v35q0 4 3 7t7 3h115q5 0 7.5 -3t2.5 -7v-35q0 -4 -2.5 -7t-7.5 -3h-87zM919 234q0 -30 -21.5 -52t-52.5 -22h-3q-30 1 -51 22.5t-21 51.5q0 24 14 44h121q14 -20 14 -44zM738 317l74 133q38 -1 70 -18.5t53 -48
t26 -66.5h-223zM738 317zM677 557q8 0 14 6t6 14t-6 13.5t-14 5.5v0q-8 0 -13.5 -5.5t-5.5 -13.5t5.5 -14t13.5 -6zM677 557z" />
    <glyph glyph-name="search-2" unicode="&#xe01e;" 
d="M994 59l-252 253q-7 6 -17 6h-20q52 56 79 126q29 72 29 150q0 111 -55 206q-54 92 -146 145q-95 56 -205.5 56t-205.5 -56q-92 -53 -145 -145q-56 -95 -56 -205.5t56 -205.5q53 -92 145 -146q95 -55 206 -55q78 0 150 29q70 27 126 79v-20q0 -10 6 -17l253 -252
q6 -7 16 -7t17 7l19 19q7 7 7 17t-7 16zM407 250q-94 0 -174 47q-78 46 -124 124q-46 80 -46 173.5t46 173.5q46 78 124 124q80 46 173.5 46t173.5 -46q78 -46 124 -124q47 -80 47 -173.5t-47 -173.5q-46 -78 -124 -124q-80 -47 -173 -47z" />
    <glyph glyph-name="search" unicode="&#xe01f;" 
d="M987 135l-195 195q-13 14 -33 14h-32q42 53 64 116q22 65 22 134q0 111 -55 206q-54 92 -146 145q-95 56 -205.5 56t-205.5 -56q-92 -53 -145 -145q-56 -95 -56 -205.5t56 -205.5q53 -92 145 -146q95 -55 206 -55q69 0 134 22q63 22 116 64v-32q0 -20 14 -33l195 -195
q13 -14 32.5 -14t33.5 14l55 55q14 14 14 33.5t-14 32.5zM407 344q-68 0 -125.5 33.5t-91.5 91t-34 125.5t34 125.5t91.5 91.5t125.5 34t125.5 -34t91 -91.5t33.5 -125.5t-33.5 -125.5t-91 -91t-125.5 -33.5z" />
    <glyph glyph-name="store" unicode="&#xe020;" horiz-adv-x="1219" 
d="M1177 769l-127 203q-8 13 -22.5 21t-30.5 8h-790q-16 0 -30 -8t-23 -21l-127 -203q-32 -51 -26.5 -110.5t43.5 -102.5q39 -45 98 -54q14 -1 27 -1q43 0 80 17t64 47q27 -30 64.5 -47t80 -17t80 17t64.5 47q27 -30 64.5 -47t80 -17t80 17t64.5 47q27 -30 64.5 -47
t79.5 -17q13 0 27 1q59 8 99 54q37 42 42.5 102t-26.5 111zM1035 438q-26 0 -57 7v-195h-751v195q-33 -7 -58 -7q-18 0 -35 2q-15 2 -32 7v-384q0 -26 18 -44.5t44 -18.5h876q26 0 44.5 18.5t18.5 44.5v384q-18 -5 -32 -7q-18 -2 -36 -2z" />
    <glyph glyph-name="taco" unicode="&#xe021;" 
d="M1000 204q-8 62 -29 122q6 13 7 26q1 8 2 22q0 28 6 49v0q11 39 14 63q4 40 -8.5 74.5t-43.5 61.5q-18 16 -51 37q-17 10 -22 14q-2 4 -6 26l-1 3q-9 41 -18 63q-16 38 -44 61q-40 33 -103 33q-12 0 -33 -1q-17 -1 -24 -1q-5 4 -19 17q-30 29 -51 42q-35 22 -73 22
q-39 0 -80 -25q-22 -14 -54 -44l-14 -12q-8 0 -24 1q-21 1 -33 1v0q-63 0 -103 -33q-28 -23 -44 -61q-9 -22 -18 -63l-1 -5q-4 -19 -6 -24q-5 -4 -20 -13l-2 -1q-34 -21 -51 -37q-31 -27 -43.5 -61.5t-8.5 -74.5q3 -24 14 -62q6 -21 6 -50q1 -14 2 -22q1 -13 7 -26
q-21 -60 -29 -122q-4 -34 9.5 -67t41.5 -53q29 -21 66 -21h765q37 0 66 21q28 20 41.5 53t9.5 67zM883 125h-765q-25 0 -41.5 21.5t-13.5 49.5q15 120 77 218.5t155 153.5q96 58 205.5 58t205.5 -58q93 -55 155 -153.5t77 -218.5q3 -28 -13.5 -49.5t-41.5 -21.5zM924 430
q-69 119 -180 188q-114 70 -243.5 70t-243.5 -70q-111 -69 -180 -188l-4 17q-8 29 -10 44q-2 27 5 47q8 22 29 40q12 11 40 27q24 15 31 21q11 9 16 23q4 10 10 40q7 33 13 48q10 27 28 41q23 19 63 19q18 0 43 -2q19 -1 26 0q10 1 20 8t29 25q50 48 87 48q20 0 42 -14
q14 -10 40 -34q19 -18 29 -25t20 -8q7 -1 26 0q25 2 43 2q41 0 63 -19q18 -14 28 -41q6 -15 13 -48q6 -29 10 -40q5 -14 16 -23q8 -6 31 -21v0q28 -16 40 -27q21 -18 29 -40q7 -19 5 -40q-1 -14 -10 -51zM219 313q-13 0 -22 -9.5t-9 -22t9 -22t22 -9.5t22 9.5t9 22t-9 22
t-22 9.5zM344 438q-13 0 -22 -9t-9 -22t9 -22.5t22 -9.5t22 9.5t9 22.5t-9 22t-22 9z" />
    <glyph glyph-name="time" unicode="&#xe022;" 
d="M999 454q-7 68 -36 130t-78 110q-81 81 -193 106v50q22 5 36.5 23t14.5 41q0 28 -19.5 47.5t-47.5 19.5h-141q-27 0 -46.5 -19.5t-19.5 -47.5q0 -23 14 -41t36 -23v-50q-111 -25 -192 -106q-18 -18 -33 -37h-141q-8 0 -14 -6t-6 -14t6 -13.5t14 -5.5h114q-21 -36 -35 -76
h-212q-9 0 -14.5 -5.5t-5.5 -13.5t5.5 -14t14.5 -6h201q-8 -37 -9 -75h-87q-8 0 -13.5 -5.5t-5.5 -14t5.5 -14t13.5 -5.5h87q3 -38 12 -75h-126q-8 0 -14 -6t-6 -14t6 -13.5t14 -5.5h139q30 -79 90 -139q48 -49 110 -78t130 -36q19 -2 39 -2q57 0 112 16.5t103 47.5
q7 4 8.5 12t-2.5 15t-12 8.5t-15 -2.5q-69 -45 -150.5 -55t-159 16.5t-136.5 84.5q-68 69 -92 162q-24 90 0 180q24 93 92.5 161.5t161.5 92.5q90 24 180 0q93 -24 162 -92q58 -59 84.5 -136.5t17 -159t-54.5 -150.5q-5 -6 -3 -14t8.5 -12.5t14.5 -3t13 8.5q36 56 52 121.5
t9 132.5zM508 914q0 12 8 20t19 8h141q11 0 19.5 -8t8.5 -19.5t-8.5 -19.5t-19.5 -8h-141q-11 0 -19 8t-8 19zM558 807v41h95v-41q-47 6 -95 0zM872 169q-9 0 -14.5 -5.5t-5.5 -14t5.5 -14t14 -5.5t14 5.5t5.5 14t-5.5 14t-13.5 5.5zM606 718q-82 0 -153 -41
q-68 -40 -109 -109q-41 -71 -41 -153t41 -153q41 -69 109 -109q71 -41 153 -41t153 41q69 40 109 109q41 71 41 153t-41 153q-40 69 -109 109q-71 41 -153 41zM606 151q-72 0 -132.5 35.5t-96 96t-35.5 132.5t35.5 132.5t96 96t132.5 35.5t132.5 -35.5t96 -96t35.5 -132.5
t-35.5 -132.5t-96 -96t-132.5 -35.5zM730 566l-97 -97q-13 7 -27 7t-27 -7l-43 44q-6 6 -14 6t-13.5 -6t-5.5 -14t5 -14l44 -43q-7 -13 -7 -27q0 -25 18 -43t43 -18t43 18t18 43q0 14 -6 27l96 97q6 5 6 13.5t-5.5 14t-14 5.5t-13.5 -6zM606 393q-9 0 -15.5 6.5t-6.5 15.5
t6.5 15.5t15.5 6.5t15.5 -6.5t6.5 -15.5t-6.5 -15.5t-15.5 -6.5zM815 434h-18q-8 0 -14 -5.5t-6 -13.5t6 -14t14 -6h18q8 0 14 6t6 14t-6 13.5t-14 5.5zM415 435h-18q-8 0 -14 -6t-6 -14t6 -13.5t14 -5.5h18q8 0 14 5.5t6 13.5t-6 14t-14 6zM606 586q8 0 14 6t6 14v18
q0 8 -6 14t-14 6t-13.5 -6t-5.5 -14v-18q0 -8 5.5 -14t13.5 -6zM606 244q-8 0 -14 -6t-6 -14v-18q0 -8 6 -14t14 -6t13.5 6t5.5 14v18q0 8 -5.5 14t-13.5 6zM20 314q-9 0 -14.5 -6t-5.5 -14t5.5 -13.5t14 -5.5t14 5.5t5.5 13.5t-5.5 14t-13.5 6z" />
    <glyph glyph-name="xmlid-1" unicode="&#xe023;" horiz-adv-x="905" 
d="M127 99q-32 21 -34.5 41t24.5 46q14 13 42 38q57 51 82 80q59 72 95 138q42 78 58 160q12 67 38 114q30 55 82 89q30 20 55 27q31 8 61 0q10 -2 28 9l3 2q39 28 61 38q37 16 72 11l7 -7q9 -9 15 -11l-6 -8q-8 -13 -14 -17q-14 -8 -42 -20q-18 -8 -27 -13q-5 -2 -8.5 -12
t0.5 -13q14 -23 10 -46q-3 -13 -18 -39l-10 -19q-12 -25 -34.5 -74t-34.5 -74l-19 -37q-39 -79 -62 -115q-40 -62 -88 -100l-28 -25q-108 -96 -166 -145q-33 -28 -71.5 -33t-70.5 15zM608 776q-6 0 -18 -3t-18 -3q-10 -1 -17 1q-14 4 -24 1q-7 -3 -17 -11q-38 -27 -60 -75
q-12 -28 -26 -89l-2 -5q-23 -111 -83 -208q-54 -89 -141 -170q-12 -9 -33.5 -28t-33.5 -28q-20 -24 8 -30q22 -6 34 -7q20 -3 33 0q28 8 60 36q22 20 68 60q57 49 84 74q47 42 81 78q42 44 74 107q26 52 47 123q4 12 15 35t14 36q5 21 -1 41q-20 2 -29 6.5t-12.5 17
t-2.5 41.5z" />
    <glyph glyph-name="adobe" unicode="&#xe024;" horiz-adv-x="900" 
d="M567 875h334v-750zM334 875h-334v-750zM450 597l211 -472h-143l-60 150h-154z" />
    <glyph glyph-name="amazon" unicode="&#xe025;" horiz-adv-x="875" 
d="M503 683q-120 -5 -202 -41q-130 -59 -130 -189q0 -76 44 -123q39 -42 103 -51q60 -9 119 14q61 25 93 76q13 -21 89 -92l111 110l-17 15q-18 18 -30 37q-16 27 -16 51v288q0 30 -19 63q-24 42 -68 67q-54 30 -133 30q-82 0 -145 -31q-56 -28 -88 -77q-30 -45 -30 -95
l143 -14q15 43 42 68q20 18 44 25q12 4 20 4v0q34 0 50 -14q14 -13 18 -40q3 -16 2 -58v-23zM503 513q0 -55 -26 -85q-22 -26 -55.5 -27.5t-58.5 21t-25 58.5q0 61 58 90q41 20 107 23v-80zM769 194q-14 -18 -50 -43q-52 -37 -116 -59q-84 -29 -176.5 -29t-185.5 38
q-73 30 -140 82q-51 39 -82 77q-6 7 -5 12t6 6t10 -2l8 -5q76 -46 123 -68q80 -39 158 -54q96 -20 197 -7q117 16 242 75q7 4 12.5 1.5t5.5 -9t-7 -15.5zM847 189q-9 -21 -22 -39q-11 -14 -19.5 -21t-13 -4.5t-0.5 11.5q11 22 20 52q13 45 5.5 55t-39.5 11q-17 0 -49 -4
l-18 -1q-9 -1 -11.5 -1t-3.5 2q-3 8 23 20t51.5 15t51.5 0q30 -3 36.5 -11t2 -34.5t-13.5 -50.5z" />
    <glyph glyph-name="android" unicode="&#xe026;" horiz-adv-x="875" 
d="M175 601v-226q0 -23 -15.5 -38.5t-38 -15.5t-40.5 16t-18 38v226q0 22 18 38t40.5 16t38 -16t15.5 -38zM196 294q0 -24 17 -41t41 -17h39l1 -119q0 -26 17 -41q15 -13 37 -13t37 14q17 15 17 40v119h72v-119q0 -26 17 -40q16 -14 38 -14t37 13q17 15 17 41v119h39
q24 0 41 17t17 41v351h-484v-351zM681 664h-487q0 62 34 113.5t90 80.5l-37 69q-2 5 0 8.5t6.5 3.5t6.5 -4l38 -70q51 23 106.5 22.5t105.5 -22.5l38 70q2 4 6.5 3.5t6.5 -3.5t0 -8l-38 -69q57 -29 90.5 -80.5t33.5 -113.5zM347 772q0 9 -6 15t-14 6t-14 -6t-6 -14.5
t6 -14.5t14 -6t14 6t6 14zM569 772q0 9 -6 15t-14 6t-14 -6t-6 -14.5t6 -14.5t14 -6t14 6t6 14zM754 655q-22 0 -37.5 -15.5t-15.5 -38.5v-226q0 -23 15.5 -38.5t38 -15.5t40.5 16t18 38v226q0 22 -18 38t-41 16z" />
    <glyph glyph-name="angular" unicode="&#xe027;" horiz-adv-x="812" 
d="M332 477h149l-75 179zM406 938l-406 -145l62 -539l344 -191l344 191l63 539zM661 270h-95l-51 128h-217l-51 -128h-95l254 572z" />
    <glyph glyph-name="apper" unicode="&#xe028;" horiz-adv-x="1251" 
d="M82 534q33 0 46 -6t20 -23h1v45q0 16 -7.5 23t-27.5 7q-16 0 -22 -5t-7 -20h-76q1 20 3 30t9 18q10 12 30 17.5t60 5.5q48 0 71.5 -8.5t33.5 -28.5q3 -7 5.5 -21t2.5 -26v-149h-75l3 38h-2q-8 -23 -23 -31.5t-47 -8.5q-44 0 -62 16.5t-18 56.5q0 37 19.5 53.5t62.5 16.5z
M116 440q19 0 26 5t7 19.5t-8 19t-31 4.5q-19 0 -27 -5t-8 -19.5t8 -19t33 -4.5zM268 625h75l-3 -40h1q14 25 28 33t46 8q41 0 61 -18q15 -13 20 -33t5 -61q0 -44 -5 -66.5t-18 -37.5q-10 -10 -25 -14.5t-40 -4.5q-30 0 -45 9t-21 32h-2v-137h-77v330zM426 506q0 28 -3 41
t-11.5 18t-25.5 5q-25 0 -33 -11t-8 -45q0 -29 3 -42.5t12 -18.5t27 -5q24 0 31.5 11.5t7.5 46.5zM539 625h75l-3 -40h2q13 25 27 33t46 8q42 0 62 -18q14 -13 19.5 -33t5.5 -61q0 -44 -5.5 -66.5t-18.5 -37.5q-10 -10 -25 -14.5t-40 -4.5q-30 0 -44.5 9t-21.5 32h-2v-137
h-77v330zM697 506q0 28 -3 41t-11 18t-26 5q-25 0 -33 -11t-8 -45q0 -29 3.5 -42.5t12 -18.5t26.5 -5q24 0 31.5 11.5t7.5 46.5zM803 514q0 37 5 57.5t18 32t34 16.5t55 5q42 0 65.5 -9.5t33.5 -33t10 -65.5v-22h-148v-10q0 -24 8 -33t31 -9q21 0 28 5.5t7 21.5h73v-5
q0 -30 -13 -48q-11 -14 -30.5 -20.5t-55.5 -6.5q-41 0 -63.5 5.5t-35.5 18.5t-17.5 34.5t-4.5 65.5zM952 536q-1 4 -1 8q0 18 -7 23t-31 5q-21 0 -27.5 -5.5t-7.5 -23.5l-1 -7h75zM1061 625h75l-4 -39h1q10 22 23 31t35 9q33 0 46 -19q8 -10 10.5 -23.5t2.5 -42.5l1 -18h-69
q1 3 1 8q0 22 -4 30t-16 8q-19 0 -26 -19q-2 -6 -2 -24v-133h-75v232h1z" />
    <glyph glyph-name="apple" unicode="&#xe029;" horiz-adv-x="736" 
d="M615 476q0 106 98 165q-55 79 -166 88q-29 2 -66 -8q-22 -5 -59 -19t-48 -14q-12 0 -54 15q-31 12 -47 16q-28 8 -48 8q-57 -1 -107 -30q-53 -31 -84 -87q-34 -61 -34 -144q0 -77 28 -158q16 -45 45 -96q36 -65 74 -103q48 -48 91 -46q15 0 32 5q10 3 31 11q25 9 38 13
q24 6 46 6t44 -6q13 -3 35.5 -12t34.5 -12q19 -5 36 -5q44 0 89 45q37 36 70 96q27 48 42 92q-78 37 -107 108q-15 36 -14 71v1zM505 797q34 40 44 86q5 25 3 55v0q-35 -2 -72.5 -21t-60.5 -47q-56 -63 -50 -140q37 -3 71.5 14.5t64.5 52.5z" />
    <glyph glyph-name="atlassian" unicode="&#xe02a;" 
d="M298 539q-12 12 -27 10.5t-22 -16.5l-246 -490q-7 -15 1.5 -29t24.5 -14h342q9 0 16 4.5t11 12.5q36 74 35 172q0 94 -35 187q-37 95 -100 163zM478 985q-75 -118 -97 -238q-19 -107 3 -221q18 -95 67 -207q30 -67 98 -196q38 -71 56 -107q4 -7 11 -11.5t15 -4.5h341
q16 0 24.5 14t1.5 28l-470 943q-8 16 -24 16t-26 -16z" />
    <glyph glyph-name="behance" unicode="&#xe02b;" horiz-adv-x="1126" 
d="M454 537q47 23 70.5 58t23.5 87q0 96 -66 138q-54 34 -155 34h-327v-693h336q66 0 119 21q58 22 90 65q35 48 35 114.5t-32 112.5t-94 63zM152 735h143q105 0 105 -79q0 -42 -26 -63q-24 -19 -67 -19h-155v161zM315 278h-163v191h166q110 0 110 -99q0 -49 -33 -72
q-29 -20 -80 -20zM1016 749h-281v68h281v-68zM1126 404q0 76 -28.5 138t-82.5 97q-57 37 -132.5 37t-135.5 -35q-57 -34 -89.5 -94.5t-32.5 -135.5q0 -78 31.5 -137.5t89.5 -92.5t136 -33q90 0 148.5 41.5t86.5 126.5h-122q-9 -30 -44 -48q-30 -17 -65 -17q-60 0 -91.5 33.5
t-31.5 94.5h362q1 16 1 25zM763 465q4 50 34.5 78.5t80.5 28.5t77.5 -27.5t32.5 -79.5h-225z" />
    <glyph glyph-name="bitbucket" unicode="&#xe02c;" horiz-adv-x="975" 
d="M32 939q-13 0 -22.5 -9t-9.5 -22v-5l133 -806q3 -15 14.5 -25t27.5 -10h637q11 -1 20 6.5t11 19.5l133 815q2 12 -5.5 22.5t-20.5 12.5l-6 1h-912zM591 357h-204l-55 287h308z" />
    <glyph glyph-name="bitcoin" unicode="&#xe02d;" 
d="M985 501q0 -132 -66 -245q-64 -110 -174 -174q-113 -66 -244.5 -66t-244.5 66q-110 64 -174 174q-66 113 -66 244.5t66 244.5q64 110 174 174q113 66 244.5 66t244.5 -66q110 -64 174 -174q66 -113 66 -245v1zM708 570q7 45 -24 76q-26 27 -82 46l22 87l-54 14l-21 -86
l-42 10l21 86l-53 13l-22 -87l-34 8l-73 19l-15 -57l20 -5q20 -4 19 -5q26 -6 25 -31l-25 -99l6 -2l-6 1l-35 -139q-7 -17 -24 -13q0 -1 -39 10l-26 -61l107 -27l-22 -88l53 -14l22 88l42 -11l-22 -87l54 -14l22 89q75 -15 117 -2q50 16 70 73q17 48 3 80q-13 30 -52 49
q59 14 68 79zM587 399q-10 -39 -66 -39q-31 0 -88 15l-10 3l29 117l13 -3q57 -13 84 -27q48 -26 38 -66zM603 571q-9 -36 -56 -37q-26 0 -73 12l-8 2l26 107l11 -3q47 -10 70 -23q39 -22 30 -58z" />
    <glyph glyph-name="bity" unicode="&#xe02e;" horiz-adv-x="969" 
d="M153 870q93 86 215 116q120 30 239 -1q124 -32 217 -123q13 -13 8 -29.5t-21 -21.5t-31 9q-81 79 -189 107q-104 27 -209.5 0.5t-185.5 -101.5q-15 -13 -31 -7.5t-20.5 22t8.5 29.5zM347 51q18 -5 29.5 7.5t8.5 29t-23 22.5q-108 32 -184 113q-75 78 -103 183
q-29 107 -1 214q4 18 -8.5 29.5t-29 7.5t-21.5 -23q-31 -123 2 -245q32 -120 118 -209q88 -92 212 -129zM636 55q118 39 202 129q82 87 114 202q33 118 6 238q-5 18 -21.5 22.5t-29.5 -6.5t-8 -31q23 -104 -6 -207q-28 -100 -99 -176q-73 -79 -175 -113q-19 -6 -22 -23
t9 -29t30 -6zM513 210l1 140q0 12 -8.5 20.5t-20.5 8.5t-20.5 -8.5t-8.5 -20.5l-1 -140q0 -12 8.5 -20.5t20.5 -8.5t20.5 8.5t8.5 20.5zM652 736v-10q2 -80 0 -111q-3 -50 -17 -77q-16 -32 -51 -46.5t-98.5 -14.5t-99 14.5t-51.5 44.5q-14 26 -17 73q-2 29 -1 102l1 25
q0 20 -16 27t-32 -1t-16 -26v-140q0 -94 74 -140q60 -38 157 -37q96 -1 157 37q74 46 74 140v140q0 18 -16 26t-32 1t-16 -27z" />
    <glyph glyph-name="bluetooth" unicode="&#xe02f;" horiz-adv-x="875" 
d="M572 666l-84 -83v168zM488 237l84 84l-84 84v-168zM813 494q0 -194 -44 -307q-42 -104 -125 -148q-73 -39 -193.5 -39t-198.5 39q-91 45 -138 148q-51 115 -51 307.5t50 309.5q46 107 136 155q79 42 197.5 42t193.5 -42q85 -48 128 -155q45 -116 45 -310zM503 494
l156 173l-245 263v-346l-144 144l-53 -53l181 -181l-181 -182l53 -53l144 145l4 -333l249 249z" />
    <glyph glyph-name="btc" unicode="&#xe030;" horiz-adv-x="750" 
d="M606 527q92 46 81 159q-7 78 -70 118q-54 33 -154 42v155h-95v-151q-25 0 -75 -1v152h-95v-155q-28 -1 -132 -1l-59 1v-101h17q39 1 54 0q24 -2 36.5 -11.5t16.5 -30.5v-425q-3 -17 -12 -24t-27 -8q-12 -1 -45 0h-21l-19 -112l191 -1v-133h95v131q25 -1 75 -1v-130h95
v133q85 5 140 22q62 20 96 60q36 44 43 116q8 86 -30 135q-33 43 -106 61zM294 738h20q51 2 81 -1q53 -6 83 -24q38 -24 38 -69.5t-39 -68.5q-31 -19 -85 -24q-30 -3 -82 -2h-16v189zM294 246v208h23q61 2 96 -2q63 -5 98 -26q44 -26 44 -75.5t-46 -75.5q-36 -21 -99 -27
q-36 -3 -97 -2h-19z" />
    <glyph glyph-name="centos" unicode="&#xe031;" horiz-adv-x="874" 
d="M566 810l62 -62l-149 -150v212h87zM249 748l149 -150v212h-88zM330 829h87v-250l21 -21l21 21v250h88l-109 109zM381 501l-21 21h-251v87l-109 -108l109 -109v87h251zM536 541h211v88l-62 62zM875 501l-109 108v-87h-249l-21 -21l21 -22h249v-87zM128 656l63 62l177 -177
h30v30l-177 177l62 62h-155v-154zM747 810h-153l61 -62l-176 -177v-30h30l176 177l62 -62v154zM398 191v212l-149 -150l61 -62h88zM128 541h213l-150 150l-63 -62v-88zM747 345l-62 -62l-176 177h-30v-30l176 -177l-61 -62h153v154zM747 460h-211l149 -150l62 62v88z
M628 253l-149 150v-212h87zM191 310l150 150h-213v-88zM547 172h-88v250l-21 21l-21 -21v-250h-87l108 -109zM221 253l177 177v30h-30l-177 -177l-63 62v-154h155z" />
    <glyph glyph-name="chrome" unicode="&#xe032;" horiz-adv-x="969" 
d="M257 576l-149 229q69 86 169 134q98 46 206 46q130 1 244 -65q63 -36 111 -87.5t80 -113.5l-402 21q-56 4 -109 -15.5t-92.5 -58t-57.5 -90.5zM321 501q0 -45 22 -82.5t59.5 -59.5t82 -22t82 22t59.5 59.5t22 82t-22 82t-59.5 59.5t-82 22t-82 -22t-59.5 -59.5t-22 -81.5
zM937 675l-273 -14q36 -43 49.5 -96.5t4 -108.5t-40.5 -103l-219 -337q69 -3 137 12q70 17 132 53q103 59 167 159q61 97 73 212t-30 223zM261 407l-182 359q-38 -58 -58 -125q-21 -68 -21 -141q0 -119 55 -223q52 -102 146 -170t209 -85l124 244q-55 -11 -108 4t-96 51
t-69 86z" />
    <glyph glyph-name="codepen" unicode="&#xe033;" 
d="M982 689l-457 305q-25 15 -49 0l-457 -305q-9 -6 -14 -15.5t-5 -20.5v-305q0 -11 5 -20.5t14 -15.5l457 -305q25 -15 49 0l457 305q9 6 14 15.5t5 20.5v305q0 11 -5 20.5t-14 15.5zM544 878l336 -225l-150 -101l-186 125v201zM457 878v-201l-186 -125l-150 101zM86 573
l108 -72l-108 -73v145zM457 123l-336 225l150 101l186 -125v-201zM501 399l-152 102l152 101l151 -101zM544 123v201l186 125l150 -101zM915 428l-108 73l108 72v-145z" />
    <glyph glyph-name="cpanel" unicode="&#xe034;" horiz-adv-x="1251" 
d="M411 570q-8 37 -36 59t-64 22h-72q-10 0 -17.5 -6t-10.5 -15l-68 -255l48 1q10 0 17.5 5.5t10.5 14.5l50 188h39q13 0 23 -8t13 -21q4 -17 -7 -31t-29 -14h-20q-10 0 -17.5 -5.5t-10.5 -15.5l-12 -46h62q35 0 61 20q25 19 36 49t4 58zM105 516h37q10 0 17.5 5.5
t10.5 15.5l12 46h-79q-34 0 -61.5 -21t-38.5 -59q-8 -32 3.5 -61.5t37 -48t58.5 -18.5h24l14 51q2 7 -2 12t-11 5h-22q-17 0 -26.5 10.5t-9.5 25.5t9.5 26t26.5 11zM589 584h-152l-7 -26q-4 -14 4.5 -25.5t23.5 -11.5h112q7 0 4 -10l-17 -63q-2 -9 -10 -9h-69q-4 0 -6 3.5
t0 7.5t6 4h43q9 0 17 6t10 15l7 26h-94q-28 0 -45 -20q-15 -17 -16 -42.5t13 -42.5q17 -20 46 -20h113q16 0 28.5 9.5t16.5 25.5l28 101q4 18 -2.5 34.5t-21 27t-32.5 10.5zM1238 651h-37q-7 0 -13 -4.5t-8 -10.5l-69 -261q31 0 55.5 19t32.5 49l51 192q2 6 -2 11t-10 5z
M776 583v0h-95l-51 -192q-2 -6 2 -11t11 -5h37q7 0 12.5 4.5t7.5 10.5l34 126h38q19 0 30 -14.5t6 -31.5l-21 -78q-2 -7 2 -12t10 -5h38q7 0 12.5 4.5t7.5 11.5l17 64q9 32 -2.5 61.5t-37 48t-58.5 18.5zM968 437q-5 0 -8 4.5t-2 8.5l16 59q2 12 15 12h64q4 0 6.5 -3t1.5 -7
l-2 -5q-1 -6 -7 -6h-42q-11 0 -18.5 -6t-9.5 -15l-7 -26h104q16 0 29 9.5t17 25.5l6 23q7 28 -10 50t-45 22h-93q-26 0 -47 -16t-28 -42l-21 -78q-5 -17 1 -33.5t20.5 -27.5t33.5 -11h130q10 0 17.5 6t10.5 15l11 41h-143z" />
    <glyph glyph-name="discord" unicode="&#xe035;" horiz-adv-x="875" 
d="M581 526q0 -23 -15 -39.5t-36 -16.5t-36 16.5t-15 39.5t15 39t36 16t36 -16t15 -39zM347 581q-21 0 -36 -16t-15 -39t15 -39.5t36.5 -16.5t36 16.5t15 39t-14.5 39t-37 16.5zM876 898v-898l-113 100l-119 111l26 -93h-567q-43 0 -73 30t-30 73v677q0 43 30 73t73 30h670
q43 0 73 -30t30 -73zM733 423q0 56 -11 114q-9 47 -25 93q-11 33 -25 62l-11 23q-25 19 -52 31q-22 10 -45 16q-17 4 -32 5l-11 1l-7 -8q53 -17 94 -42q20 -12 30 -22v0q-87 48 -188 51q-97 3 -186 -36l-29 -15l14 11q19 14 43 26q34 17 74 29l-5 6l-11 -1q-16 -1 -32 -5
q-23 -6 -45 -16q-28 -12 -52 -31l-12 -23q-13 -29 -24 -62q-16 -46 -25 -93q-11 -58 -11 -114l8 -11q11 -14 26 -25q22 -17 48 -26q32 -12 70 -14l34 42q-40 12 -68 37q-14 12 -20 22v0q6 -4 18 -11l3 -2q66 -37 147 -43q87 -7 165 26q29 11 58 29l-9 -11q-13 -13 -29 -24
q-24 -16 -53 -24q15 -19 33 -41v0q38 2 71 14q26 9 47 26q15 11 27 25z" />
    <glyph glyph-name="dochub" unicode="&#xe036;" horiz-adv-x="813" 
d="M778 688h-277v275zM594 626v-255q0 -98 -54.5 -146.5t-166.5 -48.5h-185v659h185q36 0 65 -5v165q-32 6 -68 6h-370v-1001h370q412 0 412 379v247h-188z" />
    <glyph glyph-name="docker" unicode="&#xe037;" horiz-adv-x="1251" 
d="M684 539h-129v116h129v-116zM684 938h-129v-118h129v118zM837 655h-129v-116h129v116zM531 796h-129v-117h129v117zM684 796h-129v-117h129v117zM1225 601q-21 14 -63 18.5t-80 -2.5q-9 70 -80 125l-27 18l-19 -27q-28 -43 -31 -100q-4 -61 24 -103q-16 -9 -37 -15
q-28 -7 -57 -6h-850q-14 -78 8 -163q23 -90 78 -154q109 -130 323 -130q231 0 396.5 103t245.5 297q52 -1 88 10q61 20 91 78l14 28l2 5zM226 655h-129v-116h129v116zM379 655h-130v-116h130v116zM531 655h-129v-116h129v116zM379 796h-130v-117h130v117z" />
    <glyph glyph-name="dribbble" unicode="&#xe038;" 
d="M501 985q-132 0 -245 -66q-110 -64 -174 -174q-66 -113 -66 -244.5t66 -244.5q64 -110 174 -174q113 -66 244.5 -66t244.5 66q110 64 174 174q66 113 66 244.5t-66 244.5q-64 110 -174 174q-113 66 -244 66zM821 762q44 -54 68 -119q25 -67 26 -139q-42 9 -98 14
q-104 10 -191 -1q-17 43 -36 81q97 40 170 101q40 34 61 63zM775 810q-19 -27 -56 -58q-68 -57 -161 -92q-43 79 -98 162q-32 47 -57 81q99 23 197.5 -1.5t174.5 -91.5zM324 875q25 -34 56 -80q54 -82 98 -160q-122 -32 -257 -44q-73 -7 -126 -6q20 95 81 171.5t148 118.5z
M86 500q0 6 1 13q60 -2 142 6q153 13 283 52q19 -36 34 -70q-108 -30 -208 -112q-92 -75 -145 -166q-51 56 -78 126q-29 72 -29 151zM246 173q23 47 67 94q48 51 111 93q70 46 150 73q37 -98 64 -200q16 -63 24 -114q-101 -44 -212 -30q-113 14 -204 84zM732 157
q-8 44 -22 101q-24 99 -59 194q83 13 173 0q49 -6 85 -18q-13 -85 -60 -157.5t-117 -119.5z" />
    <glyph glyph-name="dropbox" unicode="&#xe039;" horiz-adv-x="1032" 
d="M517 774l-258 -165l258 -165l-258 -165l-259 167l259 164l-259 164l259 164zM257 227l258 165l258 -165l-258 -164zM517 446l258 164l-258 164l257 164l258 -164l-258 -165l258 -165l-258 -165z" />
    </font>
</defs>
</svg>
